<svg class="S" xmlns="http://www.w3.org/2000/svg" viewBox="0 0 126 126"><g style="isolation:isolate"><g id="design"><path d="M44.79,85.32a3.82,3.82,0,0,1-2.19,2.89,2.55,2.55,0,0,1-1.41,1.65c-1.18.53-3.8,6.51-7.34,10.57a21.56,21.56,0,0,0-5,10.9c-.08,1.68,2.22,5.53,3.37,6.15s3.71.36,3.58,1.24-2.61.88-3.58.62-2.4,0-3.19-1.68-3.8-3.18-5.12-3.36-2.92-.79-3.1-2.74,2.48-2.44,3.89-4.33,2.36-4.89,3.24-7.89a27.19,27.19,0,0,1,5.66-9.78c2.47-2.59,2.76-3.42,2.76-4.24A46.4,46.4,0,0,1,39,74.64c1.76-4.78,1.5-7.17,1.32-8.76s.56-5.74,3.46-6.18,7.41,1.88,6.79,7.7-4,14.39-5.11,15.54a3.57,3.57,0,0,1-.16,1.39A8,8,0,0,0,44.79,85.32Z" style="fill:#de7740"/><path d="M20,111.83s-.49.48-.49.84a4.75,4.75,0,0,0,2.17,2.25,16.78,16.78,0,0,1,4.24,2.69c1.06,1.11,2.86,2.79,5.27,2.79a31.64,31.64,0,0,0,4.56-.27c.57-.09.33-1.06.33-1.06Z" style="fill:#99e4ef"/><path d="M38.54,68.36s-1.9,8.74-3.58,15c0,0,8.11.26,10.48,2.38a27.86,27.86,0,0,1,3.08-7,66.44,66.44,0,0,0,7.42-13C58.5,59.7,38.54,68.36,38.54,68.36Z" style="fill:#822f20"/><path d="M26.22,108.2c-.53.56-1.36.84-1.54,1.44a1.35,1.35,0,0,0,.22,1.45s-1.06-.26-1.12-.79.08-.73.32-.89S26.22,108.2,26.22,108.2Z" style="fill:#ccc;mix-blend-mode:multiply"/><path d="M29.24,110.17s-2.37.73-3.78,0-1.21-1.43-1.71-1.92a1.17,1.17,0,0,0-1.91.35A33.78,33.78,0,0,1,20,111.83a19.47,19.47,0,0,0,3.84,2.82,13.43,13.43,0,0,1,3.67,2.61,6.28,6.28,0,0,0,4.59,2,29.77,29.77,0,0,0,4-.23s-.13-1.28-.62-1.5-3.22-.84-3.22-.84l-.31.09,0-.8s-1.66-3.37-2.25-4.19A2.44,2.44,0,0,1,29.24,110.17Z" style="fill:#3a3a3a"/><path d="M44.8,85.31h0l0,.12s-4.69-2.12-8.34-.27c0-.31.09-.9.23-1.69C38.89,83.66,42.78,84.14,44.8,85.31Z" style="fill:#ccc;mix-blend-mode:multiply"/><path d="M42.6,88.21a3,3,0,0,1,0-2,8.42,8.42,0,0,1-1.65.65l.83.17Z" style="fill:#ccc;mix-blend-mode:multiply"/><path d="M30.8,100.34a18.63,18.63,0,0,0,5.26-7.72,22.93,22.93,0,0,1-1.9,4.81A17.55,17.55,0,0,1,30.8,100.34Z" style="fill:#ccc;mix-blend-mode:multiply"/><path d="M38,93.86c.77-1.79,3.34-1,5.48-2s4.4-3.18,6.61-5.4a27.06,27.06,0,0,1,9.62-5.92l.35-.1h0c.89-.29,1.68-1-1.32-2.23s-8.25-9.66-10.66-12.43.47-11.89,7.65-7.5S68.52,76.37,69.16,77.37s1.89,2.3,1.78,3.89a2.68,2.68,0,0,1-2.71,2.39,2.55,2.55,0,0,1-2,.78c-1.29-.1-6.44,3.92-11.48,5.81a21.74,21.74,0,0,0-9.56,7.3c-.87,1.44-.65,5.86.06,6.95s3.1,2.08,2.56,2.79-2.71-.46-3.44-1.16-2.11-1.14-2-3-1.83-4.6-2.91-5.39S37.24,95.65,38,93.86Z" style="fill:#de7740"/><path d="M44.35,92.62c-.59.51-1.44.7-1.69,1.28s-.22,1.23.08,1.46c0,0-1-.37-1-.9s.15-.71.41-.85S44.35,92.62,44.35,92.62Z" style="fill:#ccc;mix-blend-mode:multiply"/><path d="M45.44,65.88C47.72,68.8,57.18,78.61,58,79.93s9.26.53,12.76-1.15a88.44,88.44,0,0,0-6.48-13.69,35.75,35.75,0,0,0-7.75-8.84Z" style="fill:#822f20"/><path d="M67.16,48c1.09,0,1.89-.8,2.42-1A11.78,11.78,0,0,1,73,46.42c.39.14.65.91.65.91s.83.29.94.62a.72.72,0,0,1-.2.79s.39.27.39.6-.22.64-.38.64a.92.92,0,0,1,.09.86c-.22.4-.46.33-.46.33A1,1,0,0,1,74,52c-.22.46-.51.6-.71.55s-.52.36-1,.38a10.24,10.24,0,0,1-3.61-.28c-1-.45-1.28-1.09-2-1.22Z" style="fill:#de7740"/><path d="M51.41,24.84c-3.48-.1-6.92,5.19-5.73,9.09s-.06,10.29.26,12.53,2.35,4.87,4.16,5S60.18,53,62,53s4.06-.07,4.91-1S68,47,66.58,46.66c-2.33-.48-8.75-1.65-11-1.45,0,0-.3-1.37-1-1.53,0,0,1.6-4.8.5-6,0,0,2.68-6.63,1.42-8.91S53.06,24.89,51.41,24.84Z" style="fill:#cc8a11"/><path d="M65.84,15.21s1,2.52,1.1,3-1.37.58-1.37.58.22,3,.27,3.84-4.69-1.46-4.69-1.46l-1.06,3.05-6.67-4A14.3,14.3,0,0,0,54.62,18c.44-1.1-.93-5.57.17-7.82s6.85-3,8.88-1.72,3,4.46,3,5.52Z" style="fill:#de7740"/><path d="M65.76,10.93A7.35,7.35,0,0,0,67.1,8.78c.44-1.19-.78-2.4-.78-2.4s.11.66-.17.77l-.39-.6s0,.4-.14.49a8,8,0,0,0-4.4-1.44c-2.56,0-5.21,1.2-5.48,1.81l-1-.39.4.64a1.13,1.13,0,0,0-1.06.61h.5a3.15,3.15,0,0,0-1.17,2.88c.14,2,.73,4.39.47,6.27h.81l.27-.55.18.75.7.11s1.15-3.84,2.72-4.18,2,.95,2,1.82h.6l.13-.76.29.65s-.09-2,.8-2.39,1.41-.82,1.48-1.39S64.61,10.58,65.76,10.93Z" style="fill:#754c24"/><path d="M59.87,14.58s-.22-1.84-1.09-1.84-1.47.69-1.38,1.84a4,4,0,0,0,.46,1.65c.1.39.2.82.7.82a1.08,1.08,0,0,0,1-1.1A5.6,5.6,0,0,1,59.87,14.58Z" style="fill:#ccc;mix-blend-mode:multiply"/><path d="M60.05,14.4s-.22-1.84-1.09-1.84-1.47.69-1.38,1.84A4.1,4.1,0,0,0,58,16.05c.11.4.21.83.71.83a1.09,1.09,0,0,0,1-1.11A5.75,5.75,0,0,1,60.05,14.4Z" style="fill:#de7740"/><path d="M61.15,21.13l-.43,1.24c-2.42-1.93-1.91-3.61-1.91-3.61C58.65,19.47,59.78,20.49,61.15,21.13Z" style="fill:#ccc;mix-blend-mode:multiply"/><path d="M65.45,18.16a4.64,4.64,0,0,1,1.47.14c-.18.34-1.35.45-1.35.45C65.06,18.55,64.81,18.23,65.45,18.16Z" style="fill:#ccc;mix-blend-mode:multiply"/><path d="M64.4,14.41s.26-.8.62-.94a4.66,4.66,0,0,1,1.7.31c0,.05,0,.1,0,.15l-.17.27a10,10,0,0,0-1.51-.2A1,1,0,0,0,64.4,14.41Z" style="fill:#754c24"/><path d="M56.94,21.35a12.46,12.46,0,0,0-5.39-1.65A5.2,5.2,0,0,0,47,21.76s-.47-.32-1.89.61a8.72,8.72,0,0,0-3.24,5.4c-.29,2.12.12,5.42,2.3,4.42S56.94,21.35,56.94,21.35Z" style="fill:#cc8a11"/><path d="M55.94,20.9a7.74,7.74,0,0,1,5.21,5.75c.53,1.59.18,10.58-.35,12.8a21.75,21.75,0,0,0-.93,5.93c0,2.74-1,11-.48,12.37a12.6,12.6,0,0,0-6.89,3c-3,2.74-5.75,7.6-14,7.6,0,0-1-11.14.61-16a91.66,91.66,0,0,0,4.13-17.54C44.19,27.71,50.2,18.63,55.94,20.9Z" style="fill:#f6a714"/><path d="M70.94,49.88a3.29,3.29,0,0,0,.62-1.82,4.08,4.08,0,0,0,.67-.31,1.59,1.59,0,0,1,.1.35c0,.22.38.41.38.41a1.19,1.19,0,0,0,.92-.09.61.61,0,0,1-.16.3,2.79,2.79,0,0,1-.83,0h0c-.12,0-.32-.08-.41,0a2,2,0,0,0-.24.8c0,.21.43.31.43.31s-.38.08-.45.2a2,2,0,0,0-.09.88c0,.2.6.2.6.2a2.92,2.92,0,0,0-.49.14c-.22.09-.28.79-.13,1s.78.3,1.32.32a3.6,3.6,0,0,1-.72.07,1.43,1.43,0,0,1-1-.52l-.17.32a8.31,8.31,0,0,0,.12-1.4A5.21,5.21,0,0,0,70.94,49.88Z" style="fill:#ccc;mix-blend-mode:multiply"/><g style="mix-blend-mode:multiply"><path d="M73.86,48.82l.49-.08a1.23,1.23,0,0,1,.29.31Z" style="fill:#ccc"/><path d="M73.86,50h.5a1.17,1.17,0,0,1,.13.29Z" style="fill:#ccc"/><path d="M73.63,51.17H74a.73.73,0,0,1,.08.27Z" style="fill:#ccc"/></g><path d="M46.72,67.4c1.39,1.6,3.43,3.81,5.39,5.94-.7,1.17-1.38,2.22-2,3.15Z" style="fill:#ccc;mix-blend-mode:multiply"/><path d="M43.28,34.82A19.15,19.15,0,0,1,44,31.47a40.16,40.16,0,0,1,2.69-5.16C49,22.8,55.44,22,57.66,24.83c1.05,1.33,1.18,4.16.22,6.65S51.94,37,51.94,37c-.18,1.62-2.6,4.3-2.6,4.3.33.65-.55,1.78-.55,1.78,1.63,1.64,4.94,7.46,6.09,9.61a1.07,1.07,0,0,1-.09,1,13.56,13.56,0,0,1,2,2.8h0l.18.31a2.2,2.2,0,0,0,.18.28l0,0c.06.1.13.19.2.29l.06.07.14.19.32.41h0a2.8,2.8,0,0,1,.57,1,15.61,15.61,0,0,1,.11,3,.92.92,0,0,1-.66.81c.2,1.43-.37,1.73-.7,1.72s-.49-.49-.59-1.55a9.08,9.08,0,0,0-.42-1.93,12.83,12.83,0,0,1,0,2.81c-.13.75-.35,1.32-.85,1.2s-.45-.63-.39-1.26a10.2,10.2,0,0,0-.19-2.47.87.87,0,0,0-.67-.58,8.84,8.84,0,0,1,.17,1.43,10.4,10.4,0,0,1-.35,2.34c-.18.54-1.16.18-1.06-.39s.46-2.39-.27-3.43l0-.07h0l-.15-.25a.41.41,0,0,1-.05-.09c-.06-.11-.12-.22-.17-.33h0a6.23,6.23,0,0,1-.63-2.73,1.35,1.35,0,0,0-.27-.94,1.24,1.24,0,0,1-.41.05c-1.27-.07-2.85-1.79-4-3.22-.89-1.11-3.7-5.81-5.43-8.58A84.08,84.08,0,0,0,43.28,34.82Z" style="fill:#ccc;mix-blend-mode:multiply"/><path d="M52.72,55.46a1.51,1.51,0,0,1,.48,1.09,6.41,6.41,0,0,0,1.21,3.32c.77,1,.5,2.77.44,3.33s.91.86,1.06.33a9.66,9.66,0,0,0,.21-2.3,8.26,8.26,0,0,0-.24-1.38.82.82,0,0,1,.68.53,9.71,9.71,0,0,1,.32,2.38c0,.62-.06,1.12.45,1.21s.67-.47.76-1.21A11.93,11.93,0,0,0,57.91,60a9.2,9.2,0,0,1,.52,1.86c.16,1,.34,1.47.66,1.47s.86-.32.59-1.71a.89.89,0,0,0,.59-.82,15.8,15.8,0,0,0-.26-3c-.09-.53-1.16-1.5-1.58-2.15A12.73,12.73,0,0,0,56,52.66Z" style="fill:#de7740"/><path d="M60.06,61.36a.74.74,0,0,1-.38.28c-.16-1-.38-1.85-.43-2.21Z" style="fill:#f2dfc2;mix-blend-mode:multiply"/><path d="M57.39,24.62c-2.31-2.61-8.52-1.5-10.55,2s-3.18,8.22-4.59,10-2,5-.8,6.45,5.79,8.39,7,9.72,2.83,2.91,4.07,2.91,4.44-2.68,3.71-3.89c-1.24-2-4.77-7.51-6.45-9,0,0,.79-1.15.44-1.77,0,0,2.21-2.73,2.3-4.32,0,0,4.68-3.19,5.47-5.66S58.49,25.86,57.39,24.62Z" style="fill:#cc8a11"/><path d="M52.25,88.74a18.57,18.57,0,0,0,7.83-5.08,23.25,23.25,0,0,1-3.6,3.69A17.57,17.57,0,0,1,52.25,88.74Z" style="fill:#ccc;mix-blend-mode:multiply"/><g style="mix-blend-mode:multiply"><path d="M59.85,80.55l-.14,0v0Z" style="fill:#ccc;mix-blend-mode:multiply"/><path d="M63.72,80.45A10.72,10.72,0,0,1,65,81.55a10.28,10.28,0,0,0-3-1C62.54,80.55,63.12,80.51,63.72,80.45Z" style="fill:#ccc;mix-blend-mode:multiply"/></g><path d="M58,81.23c.57-.25,1.14-.47,1.69-.65l.12,0A28.88,28.88,0,0,0,69,79.44h0S63,82.4,58,81.23Z" style="fill:#ccc;mix-blend-mode:multiply"/><path d="M37.1,93.67s-.66.2-.83.51a4.81,4.81,0,0,0,.84,3,16.6,16.6,0,0,1,2.45,4.39c.4,1.47,1.19,3.81,3.31,5A32.56,32.56,0,0,0,47,108.47c.54.19.79-.78.79-.78Z" style="fill:#99e4ef"/><path d="M46,96.62s-2.42-.49-3.32-1.8-.38-1.83-.59-2.5a1.17,1.17,0,0,0-1.85-.6,32.5,32.5,0,0,1-3.17,2,19.5,19.5,0,0,0,2,4.32,13.25,13.25,0,0,1,2,4,6.33,6.33,0,0,0,3.08,4,31.71,31.71,0,0,0,3.6,1.69s.5-1.19.17-1.61-2.44-2.28-2.44-2.28l-.31-.06.42-.68s.14-3.77,0-4.77A2.48,2.48,0,0,1,46,96.62Z" style="fill:#3a3a3a"/><path d="M99.38,16.37s1.19,2.95,1.29,3.47-1.6.67-1.6.67.26,3.46.31,4.5S93.9,23.3,93.9,23.3l-3.36,6.57-5.83-6.53s1-2.47,1.53-3.76-1.08-6.52.21-9.15,8-3.52,10.39-2,3.47,5.22,3.47,6.46Z" style="fill:#de7740"/><path d="M98.93,19.82a5.38,5.38,0,0,1,1.71.17c-.21.4-1.57.52-1.57.52C98.46,20.29,98.17,19.91,98.93,19.82Z" style="fill:#ccc;mix-blend-mode:multiply"/><path d="M97.7,15.44s.29-.94.72-1.1a5.53,5.53,0,0,1,2,.36c0,.06,0,.12,0,.17l-.19.32A13.92,13.92,0,0,0,98.45,15,1.16,1.16,0,0,0,97.7,15.44Z" style="fill:#754c24"/><path d="M91.76,27.49a7.85,7.85,0,0,1,1.31-1.81c.42-.2.66-1.19.66-1.56a3.67,3.67,0,0,1,.12-.81l-1.66-1-1.42,4.1Z" style="fill:#de7740"/><path d="M93.9,23.3c-.25.21-.09,1.06-.36,1.7-1.31-1.39-2.77-3.23-2.39-4.47C91.21,21.85,92,22.34,93.9,23.3Z" style="fill:#ccc;mix-blend-mode:multiply"/><path d="M87.16,7.8a4.19,4.19,0,0,0-1,1A2.52,2.52,0,0,0,86,9.91a3.43,3.43,0,0,1-.31,1.2,6.24,6.24,0,0,0-.56,2.74,10.67,10.67,0,0,1,.34,2.38,4,4,0,0,0,.23,1.56,4.54,4.54,0,0,1,.08,1.73,2.65,2.65,0,0,0,.27.81,4.33,4.33,0,0,1,.92-.9c.5-.32,1.81-1.1,2-1.78s.46-2.17.61-2.52.72-.89.8-1.09-.45-.5.31-.39.16.17.61.32,1.4.49,1.57.82.1.65.26.64.34-1.48.69-1.87-.38-1.14.25-1.14a2.79,2.79,0,0,0,1.64-.55,5.26,5.26,0,0,0,1.21-1.35c.24-.41.64-.67.82-.59s.58,0,.72.31.16.37.45.51a.9.9,0,0,1,.36.56l.21.36.23,0,.08-.4a.4.4,0,0,0,.09-.45c-.1-.31,0-.25.2-.63A3.58,3.58,0,0,0,100.29,9s.34-.11-.08-.7a4.73,4.73,0,0,1-.53-.9,1.92,1.92,0,0,0-.79-.54c-.29-.1-.68-.1-1.2-.24s-1.24-.45-1.54-.33a1.82,1.82,0,0,1-.89.13c-.55,0-.41-.08-1.17-.19A4.57,4.57,0,0,0,92.22,6a17.27,17.27,0,0,0-1.73.23c-.63.21-1.33.38-1.51.47s-.76.29-.76.29Z" style="fill:#754c24"/><path d="M92.4,15.63s-.26-2.15-1.28-2.15-1.72.81-1.62,2.15A4.54,4.54,0,0,0,90,17.56c.12.47.24,1,.82,1A1.27,1.27,0,0,0,92,17.24,6.19,6.19,0,0,1,92.4,15.63Z" style="fill:#ccc;mix-blend-mode:multiply"/><path d="M92.6,15.43s-.26-2.16-1.27-2.16-1.73.81-1.62,2.16a4.88,4.88,0,0,0,.53,1.93c.12.46.24,1,.83,1A1.27,1.27,0,0,0,92.21,17,6.38,6.38,0,0,1,92.6,15.43Z" style="fill:#de7740"/><path d="M80,97.27a2.5,2.5,0,0,0-1.87.91c-.66.9.14,2.47.47,2.74s2.55,2.36,3.4,2.63a4.51,4.51,0,0,1,2.74,2.31c.61,1.34,3.41,4.11,6.26,4.36,0,0,2.58.5,3.34-.72a4.67,4.67,0,0,1-3.4-.43,16.77,16.77,0,0,1-3.8-3.27,9.82,9.82,0,0,0-2.53-3.07,15.88,15.88,0,0,1-4.17-3.48A3.24,3.24,0,0,1,80,97.27Z" style="fill:#99e4ef"/><path d="M52.72,104.5a3.94,3.94,0,0,0-2.32.1c-.78.48-1.36,2.82-.93,4s2,3.06,2.06,4.36.56,4.3,2.14,5.66a5.27,5.27,0,0,0,4.53,1.29,8.3,8.3,0,0,1-5.42-5,6.63,6.63,0,0,1-.16-2.28,14.81,14.81,0,0,0-.88-3.46s-.86-2.9-.25-3.83Z" style="fill:#99e4ef"/><path d="M84.27,74.79s3.9,1,5.71,1.44,4.9,1.89,5.31,2.68c0,0,.46.37-.41,1a22.13,22.13,0,0,0-5.59,7.29,24,24,0,0,1-2.6,4.19l-3,3.21-1.28,1.36s-.16,2.39.87,3.29a7.23,7.23,0,0,0,3.41,1.36s1.72,0,2.2-1.32c0,0-.52-1.64,0-2.18s2.21-4.19,4.14-5.26a50.22,50.22,0,0,0,8.44-7.08,5.34,5.34,0,0,1,1.36-1,10.21,10.21,0,0,0,3.41-4.2,4.39,4.39,0,0,0-.37-3.62c-1.07-2-7.83-9.38-9.47-10.51C96.44,65.39,88.13,67.79,84.27,74.79Z" style="fill:#de7740"/><path d="M82.62,95.77a4.9,4.9,0,0,0,1,3,3.19,3.19,0,0,0,2.58,1,8.71,8.71,0,0,1,1.87,0s.08-1.54.85-1.46a1.79,1.79,0,0,1,.16,1s1.62,5.84,4.94,8.72c0,0,.67.66.45,1.18s-1.22,1.13-3.33.2a11.33,11.33,0,0,1-4.58-4.09,8.33,8.33,0,0,0-2.66-2.69c-.91-.58-4-2.69-4.2-4.45a1.6,1.6,0,0,1,.17-1.15,3.9,3.9,0,0,0,.79-.74,2.09,2.09,0,0,1,.85-.74c.25-.08,1.91-1.46,1.75-.5Z" style="fill:#3a3a3a"/><path d="M86.65,101.22a.33.33,0,0,1-.33-.32.34.34,0,0,1,.32-.34c.53,0,2-.2,2.34-.84a.33.33,0,0,1,.57.33c-.62,1.07-2.66,1.16-2.89,1.17Z" style="fill:#fff"/><path d="M87.29,102.17a.32.32,0,0,1-.32-.31.33.33,0,0,1,.31-.35c.48,0,1.92-.2,2.28-.79a.33.33,0,1,1,.56.35c-.61,1-2.59,1.09-2.81,1.1Z" style="fill:#fff"/><path d="M88.13,103.19a.34.34,0,0,1-.32-.27.34.34,0,0,1,.27-.39h0a3.1,3.1,0,0,0,1.75-1,.33.33,0,1,1,.54.37,3.71,3.71,0,0,1-2.18,1.26Z" style="fill:#fff"/><path d="M88.94,104.4a.32.32,0,0,1-.32-.26.33.33,0,0,1,.26-.39s1.25-.25,1.31-1.11a.33.33,0,0,1,.66,0c-.1,1.37-1.78,1.7-1.85,1.71Z" style="fill:#fff"/><path d="M97.06,65.86c-1.89-.94-5.47,3.09-6.87,4.86a27.47,27.47,0,0,1-4.47,3.81c-.81.59-1.47,1.06-1.74,1.29a6,6,0,0,1-2.73,1.27.8.8,0,0,0-.73.46s-.45.61-.86,1.27-1.24.25-1.57,0-.82.41-.82.41L75.09,81.7a6.19,6.19,0,0,1-3.21.62A20.44,20.44,0,0,1,68.18,81a6,6,0,0,1-2.35-1.77c-.29-.57-2.39-1.52-2.84-1.72a1,1,0,0,1-.49-.79l1-1.27a4,4,0,0,0,1.12-2c.16-.74.45-2.79.61-3.86s.74-3.5,1.15-3.87a.91.91,0,0,0,.29-.87,9.34,9.34,0,0,1,1.65-3.33,3.67,3.67,0,0,0,.57-2A1.72,1.72,0,0,1,70,58l.61.53,2.23,2.06,2.3,1.73.69.35,1.67.85,1.06.53h0l4.94,1.68,1.76-.29.66-.87,1-.74,1-1.23.2-1.65a1.2,1.2,0,0,1,1.34.46.4.4,0,0,1,.34.12.93.93,0,0,1,.21.39,1.31,1.31,0,0,1,0,.23C92.74,62.48,96.93,65.76,97.06,65.86Z" style="fill:#822f20"/><path d="M65,78.25s-.31,4.54-.33,5.28c0,0-.33,2.56-1.52,3.71S58,91.11,56.76,95.72s-1.18,6-1.18,6a7.11,7.11,0,0,1-.82,2.31,19.14,19.14,0,0,1-1.28,1.48,4.38,4.38,0,0,0-.53,1.71,9.26,9.26,0,0,0,.9,2.63,9.29,9.29,0,0,0,1.24.89c.31.08,1.42.22,1.6.26a3.46,3.46,0,0,0,1.05-.16l.56-.27a17.21,17.21,0,0,1,.23-3,11.18,11.18,0,0,0,.55-2.64,8.86,8.86,0,0,1,1.42-3.33,24,24,0,0,0,2.74-4.44,15.44,15.44,0,0,1,2.88-3.36c.39-.29,3.66-1.77,4-3.08a10,10,0,0,1,1-2.74c.43-.78,3.37-4,3.62-6.34,0,0-2.14.85-5.84-.62a12.54,12.54,0,0,1-3-2Z" style="fill:#de7740"/><path d="M54.49,104.41s-1.17,0-1.77,0A1.67,1.67,0,0,0,51.06,106a7,7,0,0,0,.59,3.54,8.24,8.24,0,0,1,.68,3.87c-.16,1.54,1.57,4.36,2.06,4.86a6.55,6.55,0,0,0,3.52,1.64c1.31,0,1.17-1.52.9-2.67A15.22,15.22,0,0,1,58,113s-.06-1.86,0-2,.72-.62.74-1c0,0-.58-.68-2,.14a2.37,2.37,0,0,1-1.61.12,4,4,0,0,1-1.79-2.9A2.88,2.88,0,0,1,54,105.2,1.07,1.07,0,0,0,54.49,104.41Z" style="fill:#3a3a3a"/><path d="M56.9,112.05a5.05,5.05,0,0,1-.75,0,10.1,10.1,0,0,1-1.39-.27.32.32,0,0,1-.23-.4.32.32,0,0,1,.4-.23c1.13.31,2.52.42,2.78.1a.33.33,0,0,1,.47,0,.32.32,0,0,1,0,.46A1.63,1.63,0,0,1,56.9,112.05Z" style="fill:#fff"/><path d="M56.74,113a9.46,9.46,0,0,1-2-.23.32.32,0,0,1-.25-.39.33.33,0,0,1,.39-.25c.64.14,2.42.41,3.11,0a.33.33,0,0,1,.36.56A3.13,3.13,0,0,1,56.74,113Z" style="fill:#fff"/><path d="M56.34,114.31a9,9,0,0,1-1.19-.08.33.33,0,0,1,.08-.65c.91.11,2.36.1,2.74-.26a.31.31,0,0,1,.46,0,.32.32,0,0,1,0,.46A3,3,0,0,1,56.34,114.31Z" style="fill:#fff"/><path d="M56.49,115.4a7.21,7.21,0,0,1-1.19-.1.33.33,0,1,1,.12-.65c.53.1,2.16.24,2.64-.36a.33.33,0,0,1,.47,0,.32.32,0,0,1,0,.46A2.68,2.68,0,0,1,56.49,115.4Z" style="fill:#fff"/><path d="M86.61,73.38a7.58,7.58,0,0,0-.89,1.15c-.81.59-1.47,1.06-1.74,1.29a6,6,0,0,1-2.73,1.27.8.8,0,0,0-.73.46s-.45.61-.86,1.27-1.24.25-1.57,0-.82.41-.82.41L75.09,81.7a6.19,6.19,0,0,1-3.21.62A20.44,20.44,0,0,1,68.18,81a6,6,0,0,1-2.35-1.77c-.29-.57-2.39-1.52-2.84-1.72a1,1,0,0,1-.49-.79l1-1.27a4,4,0,0,0,1.12-2c.16-.74.45-2.79.61-3.86s.74-3.5,1.15-3.87a.91.91,0,0,0,.29-.87,9.34,9.34,0,0,1,1.65-3.33,3.67,3.67,0,0,0,.57-2A1.72,1.72,0,0,1,70,58l.61.53,2.23,2.06,2.3,1.73.69.35c-.31.3-.68.57-1,.87a15,15,0,0,0-1,1.28c-.26.33-1.2,1.18-1.13,1.57.42.09,3.11-2.17,4.74-2.87l1.06.53h0a9.53,9.53,0,0,1-1.84,1.73,8,8,0,0,0-2.22,2.56,8,8,0,0,1,1.22-.8A3.52,3.52,0,0,0,74.59,70c.38,0,.53-.25.77-.49a21.22,21.22,0,0,1,2.27-2,8.61,8.61,0,0,1,3.42-1.64c0,.65-1.91,1.75-2.32,2.12a13.16,13.16,0,0,0-1.84,2c-.34.46-.69.89-1,1.33-.12.15-.71,1-.61,1.19.29.59,1.52-.52,1.81-.69,0,.31-.25.59-.26.91a4.07,4.07,0,0,0,1.46-.72c.93-.53,1.8-1.13,2.66-1.74,1.43-1,2.9-2.76,4.7-3a14.68,14.68,0,0,1-2.28,2.52c-.48.45-.95.92-1.4,1.41-.24.25-.7.59-.81.92a1,1,0,0,0,.82-.2c-.17.32-.53.53-.7.87,1.11-.28,1.84-1.7,2.89-1.91.19,1-2.38,2.18-3,2.62-.92.65-1.88,1.25-2.74,2a4.74,4.74,0,0,0-1.26,1.84c-.32.69-1,.9-1.37,1.52.48.11.9-.35,1.2-.67a10.84,10.84,0,0,1,1.75-1.56c.59-.39,1.14-.89,1.75-1.23.39-.22.85-.33,1.11-.74,0,1.09-1.47,1.51-1.75,2.39.59-.09,1.35-1,1.77-1.42a1.28,1.28,0,0,1-.07.6c1-.73,1.72-1.61,2.79-2.29.47-.3,1-.49,1.48-.74s.91-.78,1.48-1.06C87.35,72.62,86.91,73.06,86.61,73.38Z" style="fill:#d1d3d4;mix-blend-mode:multiply"/><path d="M89.23,67.23c-.21.16-.46.26-.54.54.57.13,1.09-.51,1.59-.71.23-.09.51-.16.75-.26.22.78-1.43,1.43-1.78,2a3.32,3.32,0,0,0,1.63-.61c.53-.28,1.09-.39,1.65-.62a8,8,0,0,1-2,1.79c-.58.44-1.73,1.16-1.85,1.91l.19,0a3.27,3.27,0,0,1-1.78,1.15c0-.84,1.25-1.3,1.53-2a14.84,14.84,0,0,1-2.32,1.36A17.79,17.79,0,0,1,84,72.82c.35-1.37,2.54-1.67,3.14-2.9a2.06,2.06,0,0,0-.8.21c0-.68,1.24-1.07,1.58-1.58s.5-1.34,1.31-1.42a.51.51,0,0,1-.1.38" style="fill:#d1d3d4;mix-blend-mode:multiply"/><path d="M88.13,55.3s1.4-.52,1.54,0-.63.85-1.54,1.21a3.37,3.37,0,0,1,1.34,1.67c.31,1,.29,1.73,0,1.73a10.62,10.62,0,0,0-1.34.27s-.41-.85,0-1.18l0-1.75Z" style="fill:#de7740"/><path d="M76,36.56l-3.33,4.82s-1,1.6-1.19,2.14a2.61,2.61,0,0,0,.2,2.55c.66.94,3.46,4.69,3.46,4.69Z" style="fill:#de7740"/><path d="M92.71,41.69c-.35,1.15-1.09,3.05-1.09,3.05-.94,3.89-2.2,9.21-2.2,9.21a7.69,7.69,0,0,0-.79,2.64,10.55,10.55,0,0,1-.2,2.77c-.09.9.17,1,0,1.53a1.31,1.31,0,0,0,0,.9s0,0,0,.06a3.1,3.1,0,0,1-1,2.13.82.82,0,0,1-.17.11A3.87,3.87,0,0,0,86,65.67c-.1.21-.16.36-.16.36a9.84,9.84,0,0,1-3.53-.22,31,31,0,0,1-5.44-2.09,22.54,22.54,0,0,1-7-5.47c-.45-.46,0-.66,0-.66a1.58,1.58,0,0,0,.87-.54c-.29-.16,1.27-1.11,1.27-1.11a.75.75,0,0,1,.78-.86L74,53.35a2.3,2.3,0,0,1-.17-1,2.37,2.37,0,0,1,.7-1.69,19.72,19.72,0,0,1,.33-3.53l.87-12.6.78-3c0-.7.29-2.51.29-2.51a3.47,3.47,0,0,1,.49-1.15c.29-.29,1.44-1.32,1.73-1.65a10,10,0,0,1,2.76-1.68,2.36,2.36,0,0,0,1.4-.79,4.4,4.4,0,0,1,.65-.74l1-.37a1.7,1.7,0,0,1,1.56.37l.4.57a1.58,1.58,0,0,0,.42.53,1.76,1.76,0,0,0,.29.21,5.1,5.1,0,0,1,1.93,2.16l1,1.43a6.74,6.74,0,0,1,1,2.14l1.18,6.72S93.07,40.54,92.71,41.69Z" style="fill:#cc8a11"/><path d="M90.7,42.87a36.64,36.64,0,0,0-2.18,3.72c-.35.72-2,2.83-.89,3.48.4.24.73,0,.83.54s-.28.77-.45,1.14-.29.72,0,1c0,.07.29.07.38.22a1.23,1.23,0,0,1,.06.61c0,.91-1,1.72-1.66,2.32a5.89,5.89,0,0,0-1.69,2.44c.79.19.94-1.42,1.8-1.47.32.78-.58,1.35-1,1.86a5.58,5.58,0,0,0-1.08,1.54c-.07.15-.47.69-.13.77s.4-.59.51-.66c.39-.26.2.16.64.11s.37-.42.33-.71c-.11,0-.22,0-.33,0,0-.65,1.6-2.41,1.65-1.14,0,.56-.6,1.09-.49,1.59a1.83,1.83,0,0,0,.59-.09c.49,1.2-1.76,1.59-2.46,1.75a5.3,5.3,0,0,1-2.34.31,10.6,10.6,0,0,1-1.24-.42,3.89,3.89,0,0,0-.86-.22c-.11.93,2.42.8,3.06.76.39,0,.86,0,1.27,0a5.18,5.18,0,0,1,1.42-.27,1.76,1.76,0,0,1-.26,1c.23.11.47.14.7.24s.41.42.59.63a.76.76,0,0,1,.13.23c.19.54-.33.68-.73.93a6.61,6.61,0,0,1-.81.53,1.81,1.81,0,0,1-.43.14,18.41,18.41,0,0,1-3,0H82.3a31,31,0,0,1-5.44-2.09,22.54,22.54,0,0,1-7-5.47c-.45-.46,0-.66,0-.66a1.58,1.58,0,0,0,.87-.54c-.29-.16,1.27-1.11,1.27-1.11a.75.75,0,0,1,.78-.86L74,53.35a2.3,2.3,0,0,1-.17-1,2.37,2.37,0,0,1,.7-1.69,19.72,19.72,0,0,1,.33-3.53l.87-12.6.78-3c0-.7.29-2.51.29-2.51a3.47,3.47,0,0,1,.49-1.15c.29-.29,1.44-1.32,1.73-1.65a10,10,0,0,1,2.76-1.68,2.36,2.36,0,0,0,1.4-.79,4.4,4.4,0,0,1,.65-.74l1-.37a1.7,1.7,0,0,1,1.56.37l.4.57a1.58,1.58,0,0,0,.42.53c-.88.28-3.12-.73-3.61.37.85.34,1.88,0,2.75.37.61.28.69.53.78,1.17.06.4,0,1.23.37,1.48.36-.28.08-1,.24-1.37.72.2.58,3,.52,3.68a4.38,4.38,0,0,1-1,2.68c0-1,.35-2.3-.19-3.23-.09.33,0,.75-.11,1.09-.35-.73-.14-2.24-.91-2.74-.08,1.38.65,2.67.65,4,0,.78-.71,3-1.7,2-.58-.62-.44-1.69-.44-2.48,0-.43-.19-2.18-.51-1s.58,2.85.79,4.11c.12.76,0,1-.77.77a11.72,11.72,0,0,0-2.08-.59c.19.57,1.58.7,2.08,1s.74,1.38.88,2c.35,0,.87-1.94,1-2.35a2.42,2.42,0,0,1,.64-.95,5.06,5.06,0,0,0,.88-1.41c.25-.45.63-.77.88-1.21.15-.26.42-1.2.78-1.14s.47,1.25.55,1.58a18.79,18.79,0,0,0,.56,2.27C91.2,36.94,92.47,40.1,90.7,42.87Z" style="fill:#f6a714"/><path d="M90.23,64.48c-1.18,1-1.83,2.41-2.87,3.51a20.66,20.66,0,0,1-1.81,1.56c-.37.32-1,1.2-1.53,1.18a14.81,14.81,0,0,1,1.26-1.83,8.82,8.82,0,0,0,1.64-3,15.07,15.07,0,0,1,.88-2.08,13.79,13.79,0,0,1,1.87-2.25l-.07.14a.88.88,0,0,1,.21-.22.93.93,0,0,1,.21.39l-.36.23c-.46.34-1.45,1.22-1.35,1.87.61-.38,1.17-1.48,2-1.41-.24.5-.85.76-1.24,1.14A4.45,4.45,0,0,0,88.12,65c-.38.74-.78,1.51-1.13,2.26l.15-.16c.93-.84,1.54-1.93,2.57-2.7.28-.22,1.18-1.11,1.6-.8S90.45,64.3,90.23,64.48Z" style="fill:#d1d3d4;mix-blend-mode:multiply"/><path d="M75.73,34.75s2.53-1.92,6.45.63c0,0,2.14,1.21,2.61,2.74a17,17,0,0,1-2.56,3.27s5.14,3,6.7,3.68a19,19,0,0,0,2.06.65c.85.2,2.82.88,3.7,1.16a15.7,15.7,0,0,0,2.83.44A2.32,2.32,0,0,0,98.45,46a2,2,0,0,1,1.18-.52l.93-.25a.57.57,0,0,1,.58.22l.63,1.15,1.45.19s1.21,0,1.37.53c0,0,.25.63-.16.93l-.47.33s-.22.27.14.27,1,.33,1.07.69a.85.85,0,0,1-.74.82s-.33,0-.28.19a.44.44,0,0,0,.22.39.62.62,0,0,1,.25.68.67.67,0,0,1-.47.41c-.19.06-.35.14-.32.44s-.11,1.21-.72,1.26a12.88,12.88,0,0,1-4.06-.24c-1.42-.41-3.1-1.76-4.28-2.06a48.46,48.46,0,0,0-6-.6c-1.45-.09-8.64-1.59-12.15-3.35l-2-.71s-1.24-.5-.77-2.23C73.87,44.54,74.68,37.35,75.73,34.75Z" style="fill:#de7740"/></g></g></svg>
