<svg class="S" id="design" xmlns="http://www.w3.org/2000/svg" viewBox="0 0 126 126"><path d="M49.28,65.47c-8.25-1-17.6-.28-23.24-3.08L25.18,62l-.95.05c-.24,0-.47,0-.69,0A4,4,0,0,1,21,61.49l-.1-2.84-3.13-.32A85.22,85.22,0,0,1,7.15,56.6,49,49,0,0,1,24.46,29.86a53.78,53.78,0,0,1,15.17-8.55,48.67,48.67,0,0,1,16.75-3A41.65,41.65,0,0,1,71.9,21.19l1,.39,1-.19a14.76,14.76,0,0,1,2.67-.23c5.17,0,9.93,2.12,10.79,3L88.68,26l2.26-.43a9.11,9.11,0,0,1,1.66-.14c5.19,0,11.53,3,12.8,6.07l.91,2.18,2.37,0c2.36,0,7.37,1.52,10,4.71a24.25,24.25,0,0,1-8,7.07c-1.65,1-3.07,1.85-3.9,3.34l-.9,1.64.81,1.68c1,2.13,3.22,3.75,5.34,5.31a21.24,21.24,0,0,1,3.16,2.62c-.39,1.43-2.66,4.81-5.23,7.82l-2.86.19-.56.23a47.92,47.92,0,0,1-16.1,3h0a33.48,33.48,0,0,1-3.79-.2c-11.06-1.21-15.93-1.91-16-1.92L69.25,69l-1.11.78C67.87,70,57.26,66.44,49.28,65.47Z" style="fill:#262425"/><path d="M123,38.45c-2.72-5.65-10.26-8.28-14.26-8.35C106.33,24.31,96,20.93,90.27,22c-1.7-2.37-10.31-5.42-17-4.17C44.8,6.47,8.39,26.83,3,58.9c2.83,1.84,14.38,3,14.38,3s.14,4.09,7.05,3.7a135,135,0,0,0,22.69,9.06c14.35,4,23-1.9,23-1.9s4.83.7,16.11,1.94,21.67-3.07,21.67-3.07l3.76-.24s7.77-8.57,7.14-12c-.57-3.07-7.5-5.93-8.88-8.83C111.05,48.59,117.67,47.34,123,38.45ZM80.4,24.8c-6.92,1.48-22.83,8-22.83,8L54,32.06S71.26,24.22,80.4,24.8ZM61.63,21c-6.2.93-21.51,8.28-21.51,8.28L36.8,28.9S50.67,19.88,61.63,21Zm-42,24c1.85-2.25,5-5.84,5-5.84l3.37.38A59.07,59.07,0,0,1,19.67,45Zm23.49-4.4,4,.45c.39.32-9.56,6.8-14.9,8.06C35.11,47.13,43.16,40.55,43.16,40.55Zm14.09,32.1c-.23.93-2.8,1-6.17.22s-7.81-2.28-7.58-3.21,3.23,0,6.67.46C53.85,70.6,57.47,71.72,57.25,72.65ZM48.13,52.48a90,90,0,0,0,14.22-8.13l5.76,1C68.5,45.72,58.47,52,48.13,52.48Zm21.25,4a77.25,77.25,0,0,0,12.54-6.9l5,1.18C87.31,51,79.72,55.9,69.38,56.43Zm9.28-18.8L73,36.41s12.05-8,21.78-5.53C89.08,31.7,78.66,37.63,78.66,37.63Zm28.43,1.5a46.26,46.26,0,0,0-9.28,5.79l-4.45-1.77A27.67,27.67,0,0,1,107.09,39.13Zm3.77,20.4c-2.65.34-6,.27-16.36.8,8.19-2.57,12.33-6.16,12.33-6.16A23.28,23.28,0,0,1,110.86,59.53Z" style="fill:#0e0e0e"/><path d="M111.8,47.34a26.13,26.13,0,0,0,9.53-8.94c-2.78-4.73-11-7.44-14.12-7.42-12.23.06-27.48,8-27.58,8l-.5.28-9.82-2.13,2.93-2c.4-.26,9.77-6.42,19.11-6.42a18.05,18.05,0,0,1,4.49.54l2.56,1.1s6.14-.62,8.52-1c-2.74-3.54-9.5-6.52-14.32-6.2-9.13.62-34,11-34.09,11.09L58,34.6,50.1,32.88,53.43,31a109.78,109.78,0,0,1,20.13-7.33,27,27,0,0,1,9.81-.09c.93-.18,3.11-.87,5.14-1.24-2.11-1.65-9.18-4.4-15-3.31C61.43,21.27,53,24.77,40.46,30.74l-.37.16-8-.91,3.56-2.26c.2-.13,14.92-9.49,27.88-8.11,1.57-.41,4.79-1.12,6.43-1.52-7.28-2.4-24.21-5.35-45.62,9.35-5.21,3.58-9.8,9.22-13.08,14.23A45.68,45.68,0,0,0,4.89,56.74c0,.12,22-4.26,44.88,3.84-21.61-5.86-45-2.44-44.94-2.41,2.79,1,9,1.9,12.7,2.32C31,55,66.09,70.68,88.68,69.18,78,68,70.34,66.33,66.23,64.58,71.36,66.63,111,70,111,70c3.39-3.83,6.69-8.76,6.41-10.33-.21-1.11-2.36-2.7-4.09-4-2-1.47-3.89-2.85-4.68-4.5l-.32-.67.36-.66C109.23,48.9,110.31,48.25,111.8,47.34ZM14.25,49.08l3.59-4.52c1.9-2.31,5.15-6,5.18-6.05l.51-.58,7.82.89-2.82,2.23C28.35,41.2,18.69,46.81,14.25,49.08Zm11,3.84,5.62-4.43C33.78,46.57,42,39.89,42,39.82l.49-.39,5.14.58.34.28a1.51,1.51,0,0,1,.51,1.53c-.09.42-.3,1.29-6.42,4.84C39.76,48,28.56,52.15,25.28,52.92Zm22.35,1.21-5.19-.55c6.77-2.86,18.82-10.46,18.89-10.52l.51-.36L68.76,44l.3.25a1.52,1.52,0,0,1,.48,1.66c-.5,1.5-5.73,3.88-7.32,4.57A43.56,43.56,0,0,1,47.63,54.13Zm41-2.71c-.47,1.43-4.44,3.18-6.12,3.87a41,41,0,0,1-13.27,3L64,57.53a183.46,183.46,0,0,0,17.17-9.07l.55-.39,6.13,1.45.27.22A1.53,1.53,0,0,1,88.6,51.42Zm23.57,7.5.83,1.79L111,61c-1.55.2-3.27.27-6.39.38-2.34.09-5.56.21-10.07.44l-5.9-.89c8.23-2.08,17.13-7.74,17.21-7.81l1-.87.95.93A24.81,24.81,0,0,1,112.17,58.92Zm-13-12.87-.68.56-8-3.2,2.39-1.57a29.66,29.66,0,0,1,14.94-4.39h5.52C108.87,39.33,99.23,46,99.18,46.05Z" style="fill:#be362c"/><path d="M117.57,36.82c-4.61,2.3-16,9.79-17.29,10.67l-1.46,1.19L86.57,43.81l5.27-3.48a31.73,31.73,0,0,1,15.94-4.69h5.52l3.39.51a16.43,16.43,0,0,0-9.87-2.83.29.29,0,0,1-.27-.07.27.27,0,0,1-.07-.13c-.33-.67-2.76.11-3.38.11-8.31,0-22.11,7.08-22.6,7.34l-1.07.61L64.74,38l6.5-4.31c.41-.28,12.86-8.06,22.73-8.06a24.26,24.26,0,0,1,11.35,3.17c-.19-.59-8.82-6.29-18.08-3.62-4,1.16-8,2.24-11.86,3.72-4.3,1.66-8.53,3.5-12.7,5.45-1.12.52-2.23,1-3.34,1.6l-1.05.55L45.15,33.66l7.37-4.27c14.7-6,24.23-11.22,34.39-7.21-2.68-1.84-6.21-2.25-9.52-2.2-4.1.06-11.82,1.6-36.06,12.34l-.14.07-.82.36L26.79,31.21l7.88-5c.27-.17,16.23-10.62,31.87-7.59a29.22,29.22,0,0,0-10.1-1.83c-9.13,0-19.58,4.09-31.07,12.14C19.55,33,15,39.29,12.77,42.67,9.91,47,7.41,50.9,6.25,56,9,55.11,17,55.11,17,55.11l11.87.24c14-.55,37.06,10.05,78.33,13.09a27,27,0,0,0,3-.18,46,46,0,0,0,4.35-5.91l-3.22.41c-1.63.21-3.38.27-6.55.39-2.34.08-5.54.2-10,.43h-.18l-6.07-.91-6-.9c7.51-1.9,21.54-9.63,22.37-10.15l1.63-1.41L107.1,49c.78-1.41,2.1-2.21,3.77-3.21a24.6,24.6,0,0,0,8.28-7.39A9.51,9.51,0,0,0,117.57,36.82Zm-102,14.52-5.41,2.77,6-10.58.1-.12c1.93-2.36,5.18-6,5.21-6.09L22.62,36l13.09,1.5-6.24,4.95C29.21,42.68,20.05,49,15.54,51.34ZM25.7,54.68l-4.86.43,9-8.08.06,0c2.33-1.56,8.73-6.71,11-8.57L42,37.54l6.43.74.75.62a3.31,3.31,0,0,1,1.12,3.33c-.27,1.16-1,2.34-7.28,6C40.43,49.72,29,53.9,25.7,54.68ZM47.58,56,35.31,54.64l6.43-2.72c6.46-2.74,18-10,18.58-10.36l1.1-.77,8.13,1.48.66.55a3.3,3.3,0,0,1,1,3.62c-.21.65-.79,2.39-8.31,5.66a45.48,45.48,0,0,1-15.22,3.84Zm42.74-4c-.21.66-.79,2.38-7.16,5a42.86,42.86,0,0,1-13.85,3.11h-.18L57.3,58.4l6-2.54A180.32,180.32,0,0,0,80.2,46.94l1.16-.81,7.33,1.73.59.49A3.32,3.32,0,0,1,90.32,52Z" style="fill:#ce4137"/><path d="M57.43,92.77,57.3,99.1s.74,9.14,5.48,9.83V111c-8.4-.58-9.85-12.11-9.85-12.11l-.62-6.11Z" style="fill:#171616"/><rect x="51.85" y="87.8" width="6.22" height="6.22" rx="3.11" style="fill:#171616"/><polygon points="56.65 91.36 52.08 91.36 38.52 71.34 43.09 71.34 56.65 91.36" style="fill:#0e0e0e"/><polygon points="53.25 91.36 57.82 91.36 67.04 71.34 60.67 71.34 53.25 91.36" style="fill:#0e0e0e"/><rect x="60.87" y="107.76" width="6.41" height="3.58" rx="1.79" style="fill:#262425"/><polygon points="77.38 93.63 71.83 93.63 55.31 69.25 60.87 69.25 77.38 93.63" style="fill:#0e0e0e"/><polygon points="73.25 93.63 78.81 93.63 91.09 69.25 82.82 69.25 73.25 93.63" style="fill:#0e0e0e"/><rect x="71.54" y="89.29" width="7.58" height="7.58" rx="3.79" style="fill:#262425"/><path d="M71.76,95.33l.18,5.12s-.18,5.13-5.84,8.78v1.35C76.5,110.12,78,100.25,78,100.25l.86-4.92Z" style="fill:#262425"/><path d="M63.74,17.69C59.28,16.22,49,15.4,35.09,22.37,35.09,22.37,50.41,15.45,63.74,17.69Z" style="fill:#dd8d77"/><path d="M26.73,53.6c10.19-1.12,20.41-2.85,23.37-11C43.49,49.94,36.08,51.52,26.73,53.6Z" style="fill:#dd8d77"/><path d="M10.93,52.88c8.52-2.94,18-6.76,21.29-13.42C25.56,45.92,18.4,49,10.93,52.88Z" style="fill:#dd8d77"/><path d="M86.68,62.8c9.14,1.2,28.1,3.2,27.73-1C108.57,63.89,95,62.94,86.68,62.8Z" style="fill:#dd8d77"/><path d="M29.38,26.25c-4.33-.17-14.54,11.29-19,20.24C15.25,38.92,23.74,30.16,29.38,26.25Z" style="fill:#dd8d77"/><path d="M67.29,60.06c8.79,1.18,18.14-.18,21-5.89C82.36,59.12,75.17,60.33,67.29,60.06Z" style="fill:#dd8d77"/><path d="M49.94,55.93c10.2-1.12,18.52-1.67,21.49-9.8C64.81,53.45,59.3,53.85,49.94,55.93Z" style="fill:#dd8d77"/><path d="M84.23,20.76c-4.47-1.47-9-3.49-28.69,4.58C55.54,25.34,70.9,18.52,84.23,20.76Z" style="fill:#dd8d77"/><path d="M103.77,28C97.41,23.41,92.26,21.81,73,30.6,73,30.6,93.11,23,103.77,28Z" style="fill:#dd8d77"/><polygon points="54.03 26.08 40.37 32.75 31.68 31.88 41.08 34.23 54.03 26.08" style="fill:#dd8d77"/><polygon points="68.98 31.81 58.33 36.42 49.64 35.55 59.04 37.9 68.98 31.81" style="fill:#dd8d77"/><path d="M117.52,36c-6.37-4.58-12.62-7.64-38.32,5.1C79.2,41.13,107.09,28.38,117.52,36Z" style="fill:#dd8d77"/><path d="M98.31,33.88C92.93,33.51,79,41.22,79,41.22L66.45,39.37l13.3,3.33S92.37,35,98.31,33.88Z" style="fill:#dd8d77"/><path d="M114.72,39.13a110,110,0,0,0-16.18,9.36L87.7,44.26,99.25,50S109.05,42,114.72,39.13Z" style="fill:#dd8d77"/></svg>
