<svg class="S" id="design" xmlns="http://www.w3.org/2000/svg" xmlns:xlink="http://www.w3.org/1999/xlink" viewBox="0 0 126 126"><defs><linearGradient id="linear-gradient" x1="199.99" y1="-778.25" x2="211.43" y2="-772.42" gradientTransform="matrix(-0.75, 0.67, 0.67, 0.75, 678.74, 500.02)" gradientUnits="userSpaceOnUse"><stop offset="0" stop-color="red"/><stop offset="1" stop-color="#8a0000"/></linearGradient><linearGradient id="linear-gradient-2" x1="208.1" y1="-784.81" x2="203.35" y2="-772.48" xlink:href="#linear-gradient"/><linearGradient id="linear-gradient-3" x1="192.56" y1="-759.5" x2="197.11" y2="-754.79" gradientTransform="matrix(-0.75, 0.67, 0.67, 0.75, 678.74, 500.02)" gradientUnits="userSpaceOnUse"><stop offset="0" stop-color="maroon"/><stop offset="0.33" stop-color="#ec0000"/><stop offset="1" stop-color="#8a0000"/></linearGradient><linearGradient id="linear-gradient-5" x1="179.68" y1="-749.23" x2="183.11" y2="-745.55" gradientTransform="matrix(-0.75, 0.67, 0.67, 0.75, 678.74, 500.02)" gradientUnits="userSpaceOnUse"><stop offset="0" stop-color="#d69241"/><stop offset="0.33" stop-color="#f8d89d"/><stop offset="1" stop-color="#b06f2b"/></linearGradient><linearGradient id="linear-gradient-6" x1="195.88" y1="-751.61" x2="201.51" y2="-745.57" gradientTransform="matrix(-0.76, 0.65, 0.65, 0.76, 688.63, 503.51)" xlink:href="#linear-gradient-5"/><linearGradient id="linear-gradient-7" x1="195.05" y1="-750.83" x2="200.68" y2="-744.79" gradientTransform="matrix(-0.76, 0.65, 0.65, 0.76, 688.63, 503.51)" xlink:href="#linear-gradient-5"/><linearGradient id="linear-gradient-8" x1="196.72" y1="-752.39" x2="202.35" y2="-746.35" gradientTransform="matrix(-0.76, 0.65, 0.65, 0.76, 688.63, 503.51)" xlink:href="#linear-gradient-5"/><linearGradient id="linear-gradient-9" x1="197.56" y1="-753.17" x2="203.19" y2="-747.14" gradientTransform="matrix(-0.76, 0.65, 0.65, 0.76, 688.63, 503.51)" xlink:href="#linear-gradient-5"/><linearGradient id="linear-gradient-10" x1="192.22" y1="-775.93" x2="201.84" y2="-767.86" xlink:href="#linear-gradient"/><linearGradient id="linear-gradient-11" x1="201.82" y1="-767.83" x2="210.09" y2="-758.96" xlink:href="#linear-gradient"/></defs><path d="M73.31,15.13a49.51,49.51,0,0,1,38.61,58.64c-5.7,26.75-32.21,43.85-59.23,38.21A49.53,49.53,0,0,1,14.08,53.33C19.78,26.59,46.29,9.48,73.31,15.13Z" style="fill:#231f20"/><path d="M105.82,56.05a43,43,0,0,1,.24,13.47l-2.16-.3a40.53,40.53,0,0,0-.22-12.79Z" style="fill:#009345"/><path d="M103.9,69.22l2.16.3a43.23,43.23,0,0,1-4,12.88l-2-.94A40.3,40.3,0,0,0,103.9,69.22Z" style="fill:#ec1c24"/><path d="M105.82,56.05l-2.14.38a40.34,40.34,0,0,0-4.23-12.09l1.92-1A42.73,42.73,0,0,1,105.82,56.05Z" style="fill:#ec1c24"/><path d="M103.68,56.43a40.53,40.53,0,0,1,.22,12.79l-.59-.08v0a39.55,39.55,0,0,0-.22-12.54.06.06,0,0,0,0,0Z" style="fill:#009345"/><path d="M103.31,69.14l.59.08a40.3,40.3,0,0,1-3.76,12.24l-.55-.27a.59.59,0,0,0,0-.08A39.83,39.83,0,0,0,103.31,69.14Z" style="fill:#e44044"/><path d="M103.68,56.43l-.6.1A39.28,39.28,0,0,0,99,44.71a.56.56,0,0,0,0-.08l.55-.29A40.34,40.34,0,0,1,103.68,56.43Z" style="fill:#e44044"/><path d="M103.09,56.57a39.55,39.55,0,0,1,.22,12.54v0l-13.72-1.9a26.31,26.31,0,0,0-.15-8.32l13.64-2.39A.06.06,0,0,1,103.09,56.57Z" style="fill:#ffe7c9"/><path d="M100.14,81.46l2,.94a42.93,42.93,0,0,1-7.8,11l-1.57-1.49A40.26,40.26,0,0,0,100.14,81.46Z" style="fill:#009345"/><path d="M101.37,43.32l-1.92,1a41.23,41.23,0,0,0-7.78-10.22l1.5-1.55A43.54,43.54,0,0,1,101.37,43.32Z" style="fill:#009345"/><path d="M99.59,81.19l.55.27a40.26,40.26,0,0,1-7.41,10.48l-.46-.45.09-.1A39.71,39.71,0,0,0,99.59,81.19Z" style="fill:#009345"/><path d="M87.14,75.19l12.45,6a39.71,39.71,0,0,1-7.23,10.2l-.09.1L82.33,82A26.23,26.23,0,0,0,87.14,75.19Z" style="fill:#ffe7c9"/><path d="M99.45,44.34l-.55.29a40.35,40.35,0,0,0-7.59-9.94.94.94,0,0,1-.1-.1l.46-.47A41.23,41.23,0,0,1,99.45,44.34Z" style="fill:#009345"/><path d="M98.9,44.63,86.69,51.06a26.57,26.57,0,0,0-5.06-6.64l9.58-9.83a.94.94,0,0,0,.1.1A40.35,40.35,0,0,1,98.9,44.63Z" style="fill:#ffe7c9"/><path d="M92.73,91.94l1.57,1.49a43.67,43.67,0,0,1-10.86,8.12l-1-1.91A41.2,41.2,0,0,0,92.73,91.94Z" style="fill:#ec1c24"/><path d="M92.27,91.49l.46.45a41.2,41.2,0,0,1-10.31,7.7L82.09,99l.16-.08A40.75,40.75,0,0,0,92.27,91.49Z" style="fill:#e44044"/><path d="M93.17,32.57l-1.5,1.55a41.33,41.33,0,0,0-10.59-7.34l1-1.93A43.48,43.48,0,0,1,93.17,32.57Z" style="fill:#ec1c24"/><path d="M91.67,34.12l-.46.47A40.5,40.5,0,0,0,80.93,27.5l-.17-.08.32-.64A41.33,41.33,0,0,1,91.67,34.12Z" style="fill:#e44044"/><path d="M89.44,58.92a26.31,26.31,0,0,1,.15,8.32l-2.13-.3a24.16,24.16,0,0,0-.14-7.65Z" style="fill:#009345"/><path d="M87.46,66.94l2.13.3a26.11,26.11,0,0,1-2.45,8l-1.93-.93A24.19,24.19,0,0,0,87.46,66.94Z" style="fill:#ec1c24"/><path d="M89.44,58.92l-2.12.37a24.27,24.27,0,0,0-2.52-7.23l1.89-1A26.25,26.25,0,0,1,89.44,58.92Z" style="fill:#ec1c24"/><path d="M87.32,59.29a24.16,24.16,0,0,1,.14,7.65l-.79-.11a23.55,23.55,0,0,0-.12-7.41Z" style="fill:#009345"/><path d="M86.67,66.83l.79.11a24.19,24.19,0,0,1-2.25,7.32l-.69-.33a23.53,23.53,0,0,0,2.15-7.07Z" style="fill:#e44044"/><path d="M85.21,74.26l1.93.93A26.23,26.23,0,0,1,82.33,82l-1.55-1.47A24.37,24.37,0,0,0,85.21,74.26Z" style="fill:#009345"/><path d="M87.32,59.29l-.77.13a0,0,0,0,1,0,0,23.88,23.88,0,0,0-2.41-7l.67-.35A24.27,24.27,0,0,1,87.32,59.29Z" style="fill:#e44044"/><path d="M86.55,59.42a23.55,23.55,0,0,1,.12,7.41l-20-2.77a.59.59,0,0,1,0-.14,3.79,3.79,0,0,0,0-1Z" style="fill:#ffe7c9"/><path d="M86.69,51.06l-1.89,1A24.75,24.75,0,0,0,80.14,46l1.49-1.53A26.57,26.57,0,0,1,86.69,51.06Z" style="fill:#009345"/><path d="M84.52,73.93l.69.33a24.37,24.37,0,0,1-4.43,6.27l-.52-.5a23.73,23.73,0,0,0,4.23-6Z" style="fill:#009345"/><path d="M84.52,73.93l0,.07a23.73,23.73,0,0,1-4.23,6L65.67,66.1a3.63,3.63,0,0,0,.66-.94Z" style="fill:#ffe7c9"/><path d="M84.8,52.06l-.67.35a.25.25,0,0,1,0-.07,23.87,23.87,0,0,0-4.45-5.88l.5-.51A24.75,24.75,0,0,1,84.8,52.06Z" style="fill:#009345"/><path d="M84.09,52.34a.25.25,0,0,0,0,.07L66.27,61.83a3.68,3.68,0,0,0-.7-.92L79.64,46.46A23.87,23.87,0,0,1,84.09,52.34Z" style="fill:#ffe7c9"/><path d="M82.42,99.64l1,1.91A43.84,43.84,0,0,1,70.59,106l-.38-2.13A41.25,41.25,0,0,0,82.42,99.64Z" style="fill:#009345"/><path d="M82.09,99l.33.61a41.25,41.25,0,0,1-12.21,4.18l-.14-.74.2,0A40.59,40.59,0,0,0,82.09,99Z" style="fill:#009345"/><path d="M80.78,80.53,82.33,82a26.79,26.79,0,0,1-6.71,5l-1-1.88A24.65,24.65,0,0,0,80.78,80.53Z" style="fill:#ec1c24"/><path d="M75.62,87l6.47,12a40.59,40.59,0,0,1-11.82,4l-.2,0L67.69,89.73A26.79,26.79,0,0,0,75.62,87Z" style="fill:#ffe7c9"/><path d="M82,24.85l-1,1.93a41.54,41.54,0,0,0-12.37-3.72l.3-2.13A43.58,43.58,0,0,1,82,24.85Z" style="fill:#009345"/><path d="M81.63,44.42,80.14,46a24.42,24.42,0,0,0-6.33-4.38l.94-1.92A27,27,0,0,1,81.63,44.42Z" style="fill:#ec1c24"/><path d="M80.26,80l.52.5a24.65,24.65,0,0,1-6.17,4.6l-.31-.58a24.08,24.08,0,0,0,5.88-4.44Z" style="fill:#e44044"/><path d="M81.08,26.78l-.32.64a40.4,40.4,0,0,0-12-3.57l-.19,0,.1-.76A41.54,41.54,0,0,1,81.08,26.78Z" style="fill:#009345"/><path d="M80.76,27.42l-6,12.23a27.11,27.11,0,0,0-8-2.42l1.9-13.41.19,0A40.4,40.4,0,0,1,80.76,27.42Z" style="fill:#ffe7c9"/><path d="M80.14,46l-.5.51a.6.6,0,0,0-.08-.08,23.78,23.78,0,0,0-6-4.23l.29-.58A24.42,24.42,0,0,1,80.14,46Z" style="fill:#e44044"/><path d="M74.61,85.13l1,1.88a26.79,26.79,0,0,1-7.93,2.72l-.38-2.1A24.56,24.56,0,0,0,74.61,85.13Z" style="fill:#009345"/><path d="M74.3,84.55l.31.58a24.56,24.56,0,0,1-7.3,2.5L67.2,87a24.15,24.15,0,0,0,7-2.42Z" style="fill:#009345"/><path d="M74.3,84.55l-.11.06a24.15,24.15,0,0,1-7,2.42L63.65,67.16a3.52,3.52,0,0,0,1.09-.37Z" style="fill:#ffe7c9"/><path d="M74.75,39.65l-.94,1.92a24.51,24.51,0,0,0-7.39-2.23l.29-2.11A27.11,27.11,0,0,1,74.75,39.65Z" style="fill:#009345"/><path d="M73.81,41.57l-.29.58h0l-.11,0a23.9,23.9,0,0,0-7.08-2.16l.09-.6A24.51,24.51,0,0,1,73.81,41.57Z" style="fill:#009345"/><path d="M73.52,42.15l-8.9,18.1a3.67,3.67,0,0,0-1.11-.33l2.82-20a23.9,23.9,0,0,1,7.08,2.16Z" style="fill:#ffe7c9"/><path d="M70.21,103.82l.38,2.13a44.17,44.17,0,0,1-13.6.23l.3-2.14A41.35,41.35,0,0,0,70.21,103.82Z" style="fill:#ec1c24"/><path d="M70.07,103.08l.14.74a41.35,41.35,0,0,1-12.92.22l.11-.81.19,0A40.7,40.7,0,0,0,70.07,103.08Z" style="fill:#e44044"/><path d="M69,20.93l-.3,2.13a41.66,41.66,0,0,0-12.92.22l-.38-2.12A43.87,43.87,0,0,1,69,20.93Z" style="fill:#ec1c24"/><path d="M68.71,23.06l-.1.76a41,41,0,0,0-12.48.24l-.19,0-.15-.82A41.66,41.66,0,0,1,68.71,23.06Z" style="fill:#e44044"/><path d="M67.31,87.63l.38,2.1a27.13,27.13,0,0,1-8.4.14l.29-2.1A25,25,0,0,0,67.31,87.63Z" style="fill:#ec1c24"/><path d="M67.2,87l.11.6a25,25,0,0,1-7.73.14l.09-.58a24.22,24.22,0,0,0,7.42-.14Z" style="fill:#e44044"/><path d="M66.71,37.23l-.29,2.11a24.67,24.67,0,0,0-7.73.13l-.37-2.1A27.37,27.37,0,0,1,66.71,37.23Z" style="fill:#ec1c24"/><path d="M66.42,39.34l-.09.6-.11,0a24.29,24.29,0,0,0-7.43.12l-.1-.57A24.67,24.67,0,0,1,66.42,39.34Z" style="fill:#e44044"/><path d="M62.49,67.18l-2.82,20h-.09A24.19,24.19,0,0,1,52.44,85l8.94-18.17A3.67,3.67,0,0,0,62.49,67.18Z" style="fill:#ffe7c9"/><path d="M58.79,40l3.56,19.9a3.54,3.54,0,0,0-1.09.38l-.06-.12L51.66,42.47a23.84,23.84,0,0,1,7.05-2.42Z" style="fill:#ffe7c9"/><path d="M60.43,66.19,46.26,80.74l0,0a23.83,23.83,0,0,1-4.52-6l18-9.5a3.46,3.46,0,0,0,.57.79Z" style="fill:#ffe7c9"/><path d="M45.64,47,60.33,61a3.51,3.51,0,0,0-.66,1L41.32,53.1A23.56,23.56,0,0,1,45.62,47Z" style="fill:#ffe7c9"/><path d="M59.67,87.19l-.09.58a25.09,25.09,0,0,1-7.39-2.23l.25-.52a24.19,24.19,0,0,0,7.14,2.16Z" style="fill:#009345"/><path d="M59.58,87.77l-.29,2.1a26.82,26.82,0,0,1-8-2.42l.94-1.91A25.09,25.09,0,0,0,59.58,87.77Z" style="fill:#009345"/><path d="M59.29,89.87,57.4,103.23a40.46,40.46,0,0,1-11.93-3.62l-.16-.08,5.94-12.08A26.82,26.82,0,0,0,59.29,89.87Z" style="fill:#ffe7c9"/><path d="M59.35,64.19,39.26,67.71h0a23.62,23.62,0,0,1-.13-7.47L59.33,63A4,4,0,0,0,59.35,64.19Z" style="fill:#ffe7c9"/><path d="M58.69,39.47l.1.57h-.08a23.84,23.84,0,0,0-7.05,2.42l-.27-.5A24.56,24.56,0,0,1,58.69,39.47Z" style="fill:#009345"/><path d="M58.32,37.37l.37,2.1a24.56,24.56,0,0,0-7.3,2.5l-1-1.88A26.86,26.86,0,0,1,58.32,37.37Z" style="fill:#009345"/><path d="M55.94,24.1l2.38,13.27a26.86,26.86,0,0,0-7.94,2.72L44,28.24l.15-.08A40.48,40.48,0,0,1,55.94,24.1Z" style="fill:#ffe7c9"/><path d="M57.4,103.23l-.11.81a41.54,41.54,0,0,1-12.37-3.72l.39-.79.16.08A40.46,40.46,0,0,0,57.4,103.23Z" style="fill:#009345"/><path d="M57.29,104l-.3,2.14a44.17,44.17,0,0,1-13-3.92l1-1.94A41.54,41.54,0,0,0,57.29,104Z" style="fill:#009345"/><path d="M55.79,23.28l.15.82a40.48,40.48,0,0,0-11.79,4.06l-.15.08h0l-.42-.78A41.25,41.25,0,0,1,55.79,23.28Z" style="fill:#009345"/><path d="M55.41,21.16l.38,2.12a41.25,41.25,0,0,0-12.21,4.18l-1-1.9A43.84,43.84,0,0,1,55.41,21.16Z" style="fill:#009345"/><path d="M52.44,85l-.25.52a24.7,24.7,0,0,1-6.33-4.39l.4-.41A23.77,23.77,0,0,0,52.39,85Z" style="fill:#e44044"/><path d="M52.19,85.54l-.94,1.91a26.7,26.7,0,0,1-6.88-4.77l1.49-1.53A24.7,24.7,0,0,0,52.19,85.54Z" style="fill:#ec1c24"/><path d="M51.39,42l.27.5,0,0a24.26,24.26,0,0,0-6,4.48l-.42-.4A24.89,24.89,0,0,1,51.39,42Z" style="fill:#e44044"/><path d="M50.38,40.09l1,1.88a24.89,24.89,0,0,0-6.17,4.6L43.67,45.1A27,27,0,0,1,50.38,40.09Z" style="fill:#ec1c24"/><path d="M46.24,80.72l0,0-.4.41A24.33,24.33,0,0,1,41.2,75l.52-.27A23.83,23.83,0,0,0,46.24,80.72Z" style="fill:#009345"/><path d="M45.86,81.15l-1.49,1.53A26.39,26.39,0,0,1,39.31,76l1.89-1A24.33,24.33,0,0,0,45.86,81.15Z" style="fill:#009345"/><path d="M45.31,99.53l-.39.79A41.33,41.33,0,0,1,34.33,93l.65-.67.1.1A40.33,40.33,0,0,0,45.31,99.53Z" style="fill:#e44044"/><path d="M45.64,47l0,0a23.56,23.56,0,0,0-4.3,6.11l-.53-.26a24.61,24.61,0,0,1,4.43-6.27Z" style="fill:#009345"/><path d="M44.92,100.32l-1,1.94a43.32,43.32,0,0,1-11.15-7.73L34.33,93A41.33,41.33,0,0,0,44.92,100.32Z" style="fill:#ec1c24"/><path d="M43.67,45.1l1.55,1.47a24.61,24.61,0,0,0-4.43,6.27l-1.93-.93A26.47,26.47,0,0,1,43.67,45.1Z" style="fill:#009345"/><path d="M44.37,82.68,35,92.31a40.21,40.21,0,0,1-7.53-9.91.56.56,0,0,0-.05-.08L39.31,76A26.39,26.39,0,0,0,44.37,82.68Z" style="fill:#ffe7c9"/><path d="M43.58,27.46l.42.78a40.76,40.76,0,0,0-10,7.48l-.09.09-.68-.65A41.68,41.68,0,0,1,43.58,27.46Z" style="fill:#e44044"/><path d="M33.94,35.81l9.73,9.29a26.47,26.47,0,0,0-4.81,6.81L26.74,46.07l0-.08A40,40,0,0,1,33.94,35.81Z" style="fill:#ffe7c9"/><path d="M42.56,25.56l1,1.9a41.68,41.68,0,0,0-10.32,7.7L31.7,33.67A43.63,43.63,0,0,1,42.56,25.56Z" style="fill:#e44044"/><path d="M41.72,74.76h0L41.2,75a24.17,24.17,0,0,1-2.52-7.23l.58-.1A23.36,23.36,0,0,0,41.72,74.76Z" style="fill:#e44044"/><path d="M41.2,75l-1.89,1a26.15,26.15,0,0,1-2.75-7.86l2.12-.37A24.17,24.17,0,0,0,41.2,75Z" style="fill:#ec1c24"/><path d="M41.32,53.1h0a23.74,23.74,0,0,0-2.19,7.14l-.59-.08a24.19,24.19,0,0,1,2.25-7.32Z" style="fill:#e44044"/><path d="M38.86,51.91l1.93.93a24.19,24.19,0,0,0-2.25,7.32l-2.13-.29h0A26.17,26.17,0,0,1,38.86,51.91Z" style="fill:#ec1c24"/><path d="M39.26,67.71h0l-.58.1a24.16,24.16,0,0,1-.14-7.65l.59.08A23.62,23.62,0,0,0,39.26,67.71Z" style="fill:#009345"/><path d="M38.68,67.81l-2.12.37a26.25,26.25,0,0,1-.15-8.31l2.13.29A24.16,24.16,0,0,0,38.68,67.81Z" style="fill:#009345"/><path d="M36.56,68.18,23.3,70.5A39.46,39.46,0,0,1,23.08,58l13.33,1.85h0A26.25,26.25,0,0,0,36.56,68.18Z" style="fill:#ffe7c9"/><path d="M35,92.31l-.65.67a41.36,41.36,0,0,1-7.78-10.21l.85-.45a.56.56,0,0,1,.05.08A40.21,40.21,0,0,0,35,92.31Z" style="fill:#009345"/><path d="M34.33,93l-1.51,1.55a43.5,43.5,0,0,1-8.19-10.75l1.92-1A41.36,41.36,0,0,0,34.33,93Z" style="fill:#009345"/><path d="M33.26,35.16l.68.65A40,40,0,0,0,26.77,46l0,.08-.88-.43A41.05,41.05,0,0,1,33.26,35.16Z" style="fill:#009345"/><path d="M31.7,33.67l1.56,1.49a41.05,41.05,0,0,0-7.4,10.48l-2-.94A42.86,42.86,0,0,1,31.7,33.67Z" style="fill:#009345"/><path d="M27.4,82.32l-.85.45a40.71,40.71,0,0,1-4.23-12.09l1-.18v0A40.11,40.11,0,0,0,27.4,82.32Z" style="fill:#e44044"/><path d="M26.55,82.77l-1.92,1a42.36,42.36,0,0,1-4.45-12.73l2.14-.37A40.71,40.71,0,0,0,26.55,82.77Z" style="fill:#ec1c24"/><path d="M25.86,45.64l.88.43A39.64,39.64,0,0,0,23.08,58v0l-1-.13A40.45,40.45,0,0,1,25.86,45.64Z" style="fill:#e44044"/><path d="M23.9,44.7l2,.94A40.45,40.45,0,0,0,22.1,57.89l-2.16-.3h0A42.94,42.94,0,0,1,23.9,44.7Z" style="fill:#ec1c24"/><path d="M23.3,70.5l-1,.18a40.53,40.53,0,0,1-.22-12.79l1,.13A39.46,39.46,0,0,0,23.3,70.5Z" style="fill:#009345"/><path d="M22.32,70.68l-2.14.37a43,43,0,0,1-.24-13.46l2.16.3A40.53,40.53,0,0,0,22.32,70.68Z" style="fill:#009345"/><circle cx="63" cy="63.55" r="3.69" style="fill:#009345"/><circle cx="63" cy="63.55" r="1.44" style="fill:#ec1c24"/><path d="M9.17,60.34C-2.18,64.64-3.42,73.41,11,67.14Z" style="fill-rule:evenodd;fill:url(#linear-gradient)"/><path d="M9.16,60.67c-13.63-7.4-11-13,2.52-6.59Z" style="fill-rule:evenodd;fill:url(#linear-gradient-2)"/><path d="M51.44,62.07c-2.13-.1-3.86,0-3.88.32s1.7.59,3.83.69c1.49.07,11.06.48,11.71.35a.22.22,0,0,0,0-.16C62.48,63.08,52.93,62.15,51.44,62.07Z" style="fill:#292823;fill-rule:evenodd"/><path d="M50.15,60.09q-20.44-.75-41,0l0,.89q20.34,2.71,40.76,4Z" style="fill-rule:evenodd;fill:url(#linear-gradient-3)"/><path d="M50.15,60.09q-20.44-.75-41,0l0,.89q20.34,2.71,40.76,4Z" style="fill-rule:evenodd;fill:url(#linear-gradient-3)"/><path d="M50.15,60.09l-9.44-.26c1.84.75,1.63,3.51-.53,4.41l9.73.68A2.53,2.53,0,0,0,50.15,60.09Z" style="fill-rule:evenodd;fill:url(#linear-gradient-5)"/><path d="M49.41,63.71a3.69,3.69,0,0,0,.27-.93l0-.31a3.25,3.25,0,0,0-.56-2,3.41,3.41,0,0,0-.36-.41h.37l.2.25a3.43,3.43,0,0,1,.6,2.17,3.6,3.6,0,0,1-.8,2.11l-.25.27-.36,0a2.65,2.65,0,0,0,.41-.41A3.06,3.06,0,0,0,49.41,63.71Z" style="fill:url(#linear-gradient-6)"/><path d="M50.1,64.49a.12.12,0,0,0,0,0,3.07,3.07,0,0,0,.42-.66,3.59,3.59,0,0,0,.31-1.26,2.88,2.88,0,0,0-1-2.43h.24l.2.08a2.43,2.43,0,0,1,.2.25,3.38,3.38,0,0,1,.58,2.12A3.51,3.51,0,0,1,50.75,64a3.37,3.37,0,0,1-.4.61l-.07.09-.18.18-.19,0h-.24A3.42,3.42,0,0,0,50.1,64.49Z" style="fill:url(#linear-gradient-7)"/><path d="M48.51,62.7l0-.29a3.88,3.88,0,0,0-.1-1,3,3,0,0,0-.47-1,3.27,3.27,0,0,0-.3-.35L48,60l.14.18a3.4,3.4,0,0,1,.6,1.55,3.64,3.64,0,0,1,0,.66,4.52,4.52,0,0,1-.06.53A3.62,3.62,0,0,1,48,64.57a1.29,1.29,0,0,1-.19.21l-.35,0a3.73,3.73,0,0,0,.34-.35A3.43,3.43,0,0,0,48.51,62.7Z" style="fill:url(#linear-gradient-8)"/><path d="M46.58,64.4a3.47,3.47,0,0,0,.79-2.05,4,4,0,0,0-.1-1,3.15,3.15,0,0,0-.49-1.05h0a2.09,2.09,0,0,0-.24-.28h.35l.1.12h0a3.34,3.34,0,0,1,.61,1.57,4,4,0,0,1,0,.69,3.71,3.71,0,0,1-.84,2.19l-.13.15-.35,0A2.47,2.47,0,0,0,46.58,64.4Z" style="fill:url(#linear-gradient-9)"/><path d="M25.57,61.22l-16.8-.73C13,45,23.76,42.67,25.57,61.22Z" style="fill-rule:evenodd;fill:url(#linear-gradient-10)"/><path d="M25.57,61.22l-16.8-.73C11.41,76.31,22,79.5,25.57,61.22Z" style="fill-rule:evenodd;fill:url(#linear-gradient-11)"/></svg>
