<svg class="S" id="design" xmlns="http://www.w3.org/2000/svg" viewBox="0 0 126 126"><g ><path d="M100.87,42.8,96.5,51.27a15.28,15.28,0,0,0-1.44,5.95,22.6,22.6,0,0,1-.73,4.41c-1.14,4-10,10.73-10.39,11l-.11.09-.14,0a41.28,41.28,0,0,0-4.37.68c-1.09,2.14-7.57,12.19-7.64,12.3-1.06,1.6-4.61,8.67-4.64,8.74l-.08.15-.14.08-18,9.68a41.08,41.08,0,0,1-7.24.83h-.31l-.16-.27a2.19,2.19,0,0,1-.19-1.77A5.33,5.33,0,0,1,43,100.73l-2,.6-.44.09c-1.85.42-6.77,1.54-8.16-3.2-.09-.28-.16-.57-.22-.84v-.23a1.83,1.83,0,0,1-.08-.58V95.51a.6.6,0,0,1,.07-.51l0-.19.07-.17a1.71,1.71,0,0,1,.12-.23l.43-.51.65-.38,2,.08.73.44c1,.8,3.7,1,4.81,1l12.7-6.49,1-1.44-.82-.82-2-2.41a2.69,2.69,0,0,1-.08-.77l-.14-1.28a1.94,1.94,0,0,1-.07-.6c0-.37-.09-.79-.15-1.2a1.71,1.71,0,0,1-.07-.56c-.06-.36-.12-.79-.19-1.19L51.13,78c-.09-.5-.15-.89-.23-1.27l-.37-1.76q-.14-.59-.27-1.14l-.06-.2q-.15-.59-.3-1.11l0-.15c-.1-.33-.21-.69-.33-1l-.05-.15c-.11-.37-.22-.7-.34-1l0-.21c-.11-.29-.22-.57-.34-.84l0-.21c-.11-.27-.23-.54-.35-.79l0-.16c-.12-.26-.25-.52-.37-.76s-.3-.55-.45-.81-.31-.52-.47-.77C44.69,62,42,60.33,39.33,58.76L38.12,58l-.07,0h0l-.08.24a3.13,3.13,0,0,1-.22.6l-.11.26q-.15.33-.33.66l-.1.2c-.17.3-.34.6-.54.9l-.1.16c-.16.26-.33.5-.51.76L35.18,63c-.43.55-.93,1.13-1.52,1.77a24.56,24.56,0,0,1-2.55,2.45c4.85,1,14.42,7.36,18.8,11l.19.16v.3l1.19,4.86a1.71,1.71,0,0,1,.09.49v.14a2,2,0,0,1,.07.45h0a1.82,1.82,0,0,1,.06.53v2.16l-.19.38-.15.16c-.75.82-1.57,1.25-5.44-.55s-4.36-7.44-4.42-8.92C40.47,78,38.08,77,37,76.55c-1.62-.65-8.82-3.29-10.87-3.55-.52-.06-1-.09-1.54-.12-1.71-.11-3.33-.22-4.31-1.44-1.17-1.47.85-3.68,2.62-5.63l1-1.08c1.4-1.64.25-7.3-1.18-10.17a73.84,73.84,0,0,1-3.19-7.91c-.54.36-1.47,2-2.76,4.8-.22.47-.4.88-.55,1.18-.85,1.69-2.81,5.61-5.64,7.88s-8.45,1.26-8.68,1.21L0,61.35l1.76-.62a26.37,26.37,0,0,0,8.36-4.86c2.28-2.11,3.79-6,5-9.08a29.43,29.43,0,0,1,1.76-4,8.08,8.08,0,0,1,2.79-3.15,10,10,0,0,1,1.21-2.31l.32-.47c.27-.36.55-.72.87-1.08l.61-.64L24,34l1.51-1.17,1.94-1.17,2.08-1.05L30.83,30l2.64-.87c.44-.12.89-.24,1.36-.35,5-1.19,11.88-1,20.5.49l7.6,1.54,5.24,1.27,1,.31,4,1L75,33.8l.43.08c.63.11,1.25.22,1.83.3l1.14.14a6.93,6.93,0,0,0,2.94-.1,8.6,8.6,0,0,0,1.49-1.13l3.27-3.16a39.28,39.28,0,0,1,3.42-2.73,34.82,34.82,0,0,0,4.19-3.41L91.89,23l-1.59-.56-2.37-.62-1.58-.42L95.47,18l4.14,1.31c.38-.36,1.33-.76,3.75-1.25,4.11-.82,9.78,3.09,10.52,3.62L126,25.37l0,1.92-.22.61-.21.21,0,.09a2.7,2.7,0,0,1-.25.34l-.09.13a3.84,3.84,0,0,1-.3.28,3.69,3.69,0,0,1-2.47,4,3.12,3.12,0,0,1-2,3.13l-.16.05-.15,0S116,35,112.29,34A9.19,9.19,0,0,1,105,35.11M46.63,100.23a3,3,0,0,0-1.28.25c-1.46.73-3.13,1.9-3.47,3a1.25,1.25,0,0,0,0,.69,40.24,40.24,0,0,0,6.65-.79l17.67-9.51c.53-1.06,3.61-7.17,4.63-8.71C72.07,83.26,77.94,74,78.44,73c0-.42.37-.67,5-1.21,1-.8,8.93-7,9.91-10.39A21.6,21.6,0,0,0,94,57.12a16.38,16.38,0,0,1,1.54-6.31l1.86-3.75L100,42.31c2.21-4.12,4.34-8.06,4.34-8.06l.21-.38.41.14s3.92,1.25,6.95-1l.21-.15.25.07c3.36,1,7,1.93,7.8,2.15a2.1,2.1,0,0,0,1.18-2.37l-.12-.51.52-.11a2.66,2.66,0,0,0,2.1-3.12l-.09-.37.3-.29a1.76,1.76,0,0,0,.33-.27l.08-.11.12-.15v-.07l.17-.22.13-.13.11-.46v-.74l-11.63-3.54c0-.05-5.91-4.27-9.77-3.5a13.83,13.83,0,0,0-3,.83l1.16,1.17-6.24-2-5.68,2.11,4.44,1.71.31.2a1.07,1.07,0,0,1,.26.26l.21.29-.2.3c-.69,1-2.74,2.57-4.73,4.05a39.71,39.71,0,0,0-3.31,2.63l-3.3,3.19a10,10,0,0,1-1.73,1.3l-.13.05a7.9,7.9,0,0,1-3.42.14l-1.12-.13c-.61-.09-1.23-.2-1.86-.31l-.46-.09c-.65-.13-1.29-.27-1.9-.42L68.44,33.3l-1-.32-1.11-.24L58,30.86l-2.8-.56c-8.49-1.49-15.24-1.66-20.08-.5-.46.11-.89.22-1.32.35l-1.67.52-1.15.42L28.56,32.2l-1.91,1.06-1.5,1.07L23.31,36l-.48.5c-.28.32-.54.66-.78,1l-.32.46a9,9,0,0,0-1.15,2.28l-.09.26-.27.07h0s-1,.35-2.44,2.79a28.42,28.42,0,0,0-1.69,3.84c-1.25,3.21-2.82,7.2-5.29,9.48A27.45,27.45,0,0,1,4,60.94c1.77.11,4.31,0,5.85-1.23,2.66-2.14,4.55-5.91,5.36-7.53.15-.3.33-.7.54-1.16,1.49-3.26,2.74-5.73,4.16-5.45l.29.06.09.28a71.5,71.5,0,0,0,3.28,8.2c1.37,2.75,2.94,9.06,1,11.29-.3.35-.64.72-1,1.11C22.34,67.9,20.42,70,21,70.8s2,1,3.57,1c.52,0,1.06.06,1.59.13,2.27.28,9.78,3.06,11.14,3.61S42,77.53,42,77.53l.32.13V78c0,.07,0,6.58,3.83,8.34,3.48,1.61,3.9,1.16,4.23.79l.08-.09V85.19a.81.81,0,0,0,0-.32l0-.19a1.19,1.19,0,0,0,0-.32l0-.37a1.23,1.23,0,0,0,0-.21l-.06-.21-.55-2.65-.61-2.09c-5.51-4.54-15.92-11-19.27-10.75l-1.76.13,1.41-1A23.69,23.69,0,0,0,32.89,64c.58-.63,1.06-1.19,1.48-1.71l.85-1.14.49-.71.09-.16c.18-.28.35-.56.5-.84l.1-.19c.11-.21.21-.4.3-.6l.11-.25a3.58,3.58,0,0,0,.17-.49l.08-.24a3.56,3.56,0,0,0,.11-.6l.09-.82,1.41.88,1.18.72c2.62,1.55,5.58,3.31,8,7.15.17.26.33.53.5.82s.31.55.46.84.3.59.45.91l0,.16q.18.39.36.81l0,.2c.12.29.23.59.34.89l0,.2c.11.3.22.63.33,1l0,.14c.12.34.23.7.34,1l0,.16c.11.38.21.76.31,1.15l0,.19c.1.4.2.79.28,1.17l.38,1.79c.08.4.15.8.22,1.21l.07.41c.08.43.14.87.2,1.3a1.31,1.31,0,0,0,0,.31l0,.13c.06.44.11.88.16,1.34a1.85,1.85,0,0,0,0,.36l0,.13.15,1.39a2.69,2.69,0,0,0,0,.44l2.66,3,.59.49-1.72,2.42L41.23,96.08h-.12c-.41,0-4.07,0-5.55-1.22l-.36-.22H33.54l-.31.33a.41.41,0,0,0,0,.09l0,.08a1,1,0,0,1-.06.27v1.17a.54.54,0,0,0,0,.25.72.72,0,0,1,.06.47,5.15,5.15,0,0,0,.16.62c1,3.37,4.07,3.16,6.95,2.51l.44-.1,1.92-.58,3.55-1.39c3.49-1.42,8.27-3.45,11.06-4.77l1.84-.85,0,0a20.34,20.34,0,0,0,1.1-3.82c.12-.57.25-1.14.36-1.71V87l.35-1.83v0c.44-2.38.8-4.56.94-5.76V79.1a2.4,2.4,0,0,1,.07-.65l.07-.13.3-.53V75.41l.06-.42v-.73l0-.43v-.11l.06-.4V70.8l5,1.07-.11.51c-.09.38-2.17,9.37-3,11.84s-2.45,9.25-2.46,9.32l-.07.29-.29.08a23.51,23.51,0,0,0-4,1.62c-1.31.79-7.58,5.15-7.65,5.19l-.22.16-.26-.1A8.14,8.14,0,0,0,46.63,100.23Zm.2-1a9.93,9.93,0,0,1,2.63.52c.91-.63,4.32-3,6.31-4.32C53.08,96.61,49.59,98.08,46.83,99.2ZM32.19,97s0,0,0,0ZM33,95.55h0Zm27.83-3.77s-.24,0-.76,1.31a1.5,1.5,0,0,1-.15.26c.33-.12.67-.24,1-.34.33-1.35,1.69-6.9,2.42-9.11s2.38-9.26,2.84-11.24l-1.7-.49Zm33.4-68.21h0l0,0Z" style="fill:#38332d"/><path d="M125.75,25.72l-11.83-3.58s-6.06-4.41-10.19-3.58-3.58,1.37-3.58,1.37l-4.66-1.36-7.43,2.75S93.84,23,94.38,23.8c-1.1,1.65-6.32,4.95-8,6.6s-3.85,3.85-5,4.41-5.23,0-8.53-.83-25.31-7.7-38-4.68S20.09,40,20.09,40s-1.1.28-2.75,3S14,53,10.45,56.26a26.88,26.88,0,0,1-8.52,5s5.5,1.11,8.26-1.1,4.67-6.06,5.5-7.71,2.75-6.6,4.12-6.32a74.27,74.27,0,0,0,3.3,8.25c1.38,2.76,2.76,8.8,1.11,10.73s-4.68,4.69-3.58,6.06,3.3,1.1,5.5,1.37,9.62,3,11,3.58L41.83,78s0,6.88,4.13,8.8,4.41,1.11,4.95.55.55-2.48-1.37-8.8c-4.95-4.13-16-11.28-19.81-11,2.75-1.93,7.71-7.43,8-10.45,5.5,3.58,12.93,5.51,14.86,26.69a18.25,18.25,0,0,0,3,3.3L54.21,89,41.29,95.62s-3.85,0-5.24-1.11-4.4-1.1-3,3.58,6.6,3,8,2.76,17.88-7.16,18.7-8,2.76-11.28,3-14,1.1-7.43,1.1-7.43l3.85.82s-3,9.36-3.85,11.84-2.48,9.36-2.48,9.36a23.62,23.62,0,0,0-4.12,1.65c-1.37.82-7.71,5.23-7.71,5.23s-2.76-1.1-4.41-.28-4.67,2.76-3.58,4.68a40.8,40.8,0,0,0,7.15-.83l17.89-9.63s3.58-7.15,4.67-8.8S79,73.34,79,73.06s4.67-.83,4.67-.83,9.1-6.89,10.21-10.74S94.12,54.89,96,51s8.81-16.51,8.81-16.51,4.12,1.37,7.43-1.1c3.84,1.1,8,2.19,8,2.19a2.6,2.6,0,0,0,1.65-3,3.18,3.18,0,0,0,2.5-3.73.5.5,0,0,0,0-.12C125.75,27.93,125.75,25.72,125.75,25.72Z" style="fill:#948678"/><path d="M68,94.23S74,98.91,74.85,100s-.55,2.76.83,4.68,2.75,3.58,4.95,2.47,1.93-2.75,0-6.32-5.78-6.33-7.15-7.43a28.64,28.64,0,0,1-3.3-3.58Z" style="fill:#5c534a"/><path d="M95.62,24.21c1.37-.82,2.76,1.65,2.76,1.65v-3L94.25,20.9l-6.07.45c.85.25,5.7,1.69,6.19,2.44-1.1,1.65-6.32,4.95-8,6.6l-.86.85a2.75,2.75,0,0,1-.59.59h0c-.64.62-1.28,1.23-1.86,1.75a47.12,47.12,0,0,0-5.63,8c0,.27,3.58-3.58,5.5-5S94.25,25,95.62,24.21Z" style="fill:#5c534a"/><path d="M37.15,76.07c1.37.55,4.67,1.93,4.67,1.93s0,6.88,4.13,8.8,4.41,1.11,4.95.55.55-2.45-1.33-8.67H47.2c-1.37,0-2.48-1.1-5.23-2.75s-9.91-3.57-13.21-4.4-5-.82-5.78-1.65.28-1.37,2.2-4.67,1.37-8.8.55-12.11S23,47.6,23.8,40.72c.56-4.72,6.84-9.06,10.72-11.35C22.24,32.47,20.07,40,20.07,40s-1.1.28-2.75,3S14,52.92,10.43,56.22a26.6,26.6,0,0,1-8.5,5s5.5,1.11,8.26-1.1,4.67-6.06,5.5-7.71,2.75-6.6,4.12-6.32a74.27,74.27,0,0,0,3.3,8.25c1.38,2.76,2.76,8.8,1.11,10.73s-4.68,4.69-3.58,6.06,3.3,1.1,5.5,1.37S35.78,75.53,37.15,76.07Z" style="fill:#5c534a"/><path d="M41.69,47.32c-3-2.47-9.35-4.4-9.35-4.4s2.75,8.25,3,11.28c.2,2.14-1.26,7.31-2.13,10.15,2.2-2.38,4.29-5.32,4.46-7.22,5.49,3.57,12.9,5.5,14.85,26.56l.09.2a24.51,24.51,0,0,0,2.72,3,4.72,4.72,0,0,0,1.2-1.32c1.1-2.52-1.1-16.82-3-23.71,3.58.55,11.56-3.84,11.56-3.84a65.88,65.88,0,0,1-10.45-1.65C51.05,55.3,44.72,49.8,41.69,47.32Z" style="fill:#5c534a"/><path d="M39.77,55.3s8,3.85,10.18,9.63c-1.1-3.85-1.37-5-1.37-5a5.51,5.51,0,0,0,3.58-.83,11.63,11.63,0,0,1-4.95-1.65A19.64,19.64,0,0,0,39.77,55.3Z" style="fill:#807468"/><path d="M45.82,80.61l1.1,3.58-1.1.55A20.36,20.36,0,0,0,45.82,80.61Z" style="fill:#807468"/><path d="M47.33,82.13l1.11,3.58-1.11.55A19,19,0,0,0,47.33,82.13Z" style="fill:#807468"/><path d="M49,82.13l1.11,3.58L49,86.26A19,19,0,0,0,49,82.13Z" style="fill:#807468"/><path d="M103.74,18.57c-4.12.82-3.58,1.37-3.58,1.37l-4.67-1.37-3.21,1.18a8.17,8.17,0,0,1,2.8.6,22.56,22.56,0,0,0,3.84,1.39v3s1.93-.83,2.2-2.2,4.95-2.75,6.88-2.2,4.13.28,4.41,3.3c3.17,1.19,9.47,3.23,12.75,4.29a4.84,4.84,0,0,0,.59-2.22l-11.83-3.58S107.87,17.74,103.74,18.57Z" style="fill:#807468"/><path d="M98.1,40.44S87.91,55,76.64,54.75c.82,5.78,1.37,6.89,1.37,6.89s-18.43,6.59-19.81,6c1.4,3.41,3.58,8.26,4.61,10.67.31-2.78,1-6.95,1-6.95l3.85.82s-3,9.36-3.85,11.84-2.48,9.36-2.48,9.36a23.62,23.62,0,0,0-4.12,1.65c-1.37.82-7.71,5.23-7.71,5.23s-2.76-1.1-4.41-.28-4.67,2.76-3.58,4.68a40.8,40.8,0,0,0,7.15-.83l17.89-9.63s3.58-7.15,4.67-8.8S79,73.34,79,73.06s4.67-.83,4.67-.83,9.1-6.89,10.21-10.74S94.12,54.89,96,51c.86-1.71,2.7-5.16,4.47-8.47Z" style="fill:#807468"/><path d="M77.14,34.8A40.3,40.3,0,0,1,72.92,34c-3.3-.82-25.31-7.7-38-4.67-8.16,2-12,5.84-13.65,8.37a35.09,35.09,0,0,1,16.54-7.14c14.86-2.2,36,6.39,36,6.39Z" style="fill:#807468"/><circle cx="120.25" cy="27.93" r="0.41" style="fill:#5c534a"/><circle cx="121.49" cy="28.06" r="0.41" style="fill:#5c534a"/><circle cx="120.93" cy="28.89" r="0.41" style="fill:#5c534a"/><path d="M122.73,27.37s-.28,2.75-1.37,3a52.07,52.07,0,0,1-6.61,0l7.71,1.11Z" style="fill:#fff"/><path d="M110.07,24.07s-1.93,1.93-3.58,1.65a2.26,2.26,0,0,1-1.93-1.65Z" style="fill:#fff"/><path d="M64.67,58.74c-.28-.28-8.26,3.58-11.28,3,1.1,4.41,3.09,16.32,3.09,16.32L54.42,62.86Z" style="fill:#fff"/><path d="M92.73,53.52s-4.82,2.61-7.29,1.78c1.65-2.75,8.76-8.67,8.76-8.67L86.82,54.2Z" style="fill:#fff"/><path d="M104.7,24.21s3.85-1.93,5.5-.55c-1.37.55-1.65,1.11-2.75,1.38S104.7,24.21,104.7,24.21Z" style="fill:#5c534a"/><path d="M39.77,99.88c-2.48-.28-5.5-.28-5.78-5.23a5.78,5.78,0,0,0,1.79-.33c-1.47-.89-4.05-.62-2.76,3.76,1.37,4.68,6.6,3,8,2.76.47-.1,2.76-1,5.59-2.14C44.14,99.35,41.14,100,39.77,99.88Z" style="fill:#5c534a"/><path d="M125.75,25.75l-5.36.38,2.19,2.2s.55,3.3-1.1,3-5.5-.82-6.6-.82-2.76.28-2.48.82,3.58,0,3.58,0l4.13,1.93v.83a14,14,0,0,1-4.13-.55,15.15,15.15,0,0,0-3.58-.83,19.1,19.1,0,0,1-5,1.11c2.47-1.37,2.75-2.48,2.75-2.48a17,17,0,0,0-2.75.28c-1.38.28-1.93.83-2.76.28s-3-1.65-3-1.65a10.56,10.56,0,0,0,2.2,3,6.51,6.51,0,0,1-3.58-1.93S97,42.92,94.51,46.22a75.47,75.47,0,0,1-7.71,8s3.85.54,5.5-.83c-1.1,1.93-.83,3-3.3,3.3s-6.06,0-7.43,1.65A8.79,8.79,0,0,0,86.8,59.7s-2.48,6.6-7.71,7.7a103.6,103.6,0,0,1-13.48,1.66h-5l2.07,10.12v-.35c.3-2.76,1.12-7.43,1.12-7.43l3.85.82s-3,9.36-3.85,11.84-2.48,9.36-2.48,9.36a23.62,23.62,0,0,0-4.12,1.65c-1.37.82-7.71,5.23-7.71,5.23s-2.76-1.1-4.41-.28-4.67,2.76-3.58,4.68a40.8,40.8,0,0,0,7.15-.83l17.89-9.63s3.58-7.15,4.67-8.8S79,73.34,79,73.06s4.67-.83,4.67-.83,9.1-6.89,10.21-10.74S94.12,54.89,96,51s8.81-16.51,8.81-16.51,4.12,1.37,7.43-1.1c3.84,1.1,8,2.19,8,2.19a2.6,2.6,0,0,0,1.65-3,3.18,3.18,0,0,0,2.5-3.73.5.5,0,0,0,0-.12C125.66,28,125.75,26,125.75,25.75Z" style="fill:#5c534a"/><path d="M59.85,92.66l-2.2,1.27a12,12,0,0,0,2.06-1A.72.72,0,0,0,59.85,92.66Z" style="fill:#754c24"/><polygon points="71.14 73.18 67.56 84.19 75.81 73.18 71.14 73.18" style="fill:#807468"/><path d="M78.29,34.93a37.93,37.93,0,0,1-5.4-1,177.73,177.73,0,0,0-17.62-4.12l18.06,7.29S76.58,35.75,78.29,34.93Z" style="fill:#5c534a"/><path d="M65.63,69.06s11.55-1.66,13.48-2.48,6.8-4.73,6.8-4.73-2.3,5.16-7.3,5.94S65.63,69.06,65.63,69.06Z" style="fill:#fff"/><path d="M24.63,38.14a11.88,11.88,0,0,0-.82,8.66C24.05,40.41,24.27,39.82,24.63,38.14Z" style="fill:#fff"/><path d="M79.28,108c-1.85,0-3.12-1.78-4-3a4.36,4.36,0,0,1-.69-3.3c.07-.65.1-1.06-.13-1.37a78.32,78.32,0,0,0-6.79-5.68l-.33-.26,2.75-5.52.5.65A27.46,27.46,0,0,0,73.8,93l.49.39c1.63,1.26,5,3.9,6.79,7.19,1.23,2.27,1.91,3.94,1.49,5.26a3.06,3.06,0,0,1-1.71,1.77A3.44,3.44,0,0,1,79.28,108Zm-10.66-14c1.37,1.07,5.89,4.61,6.64,5.62a2.82,2.82,0,0,1,.34,2.1,3.34,3.34,0,0,0,.5,2.58c1.59,2.24,2.65,3.15,4.3,2.32a2.07,2.07,0,0,0,1.19-1.16c.26-.83-.15-2.12-1.41-4.46-1.68-3.1-5-5.65-6.52-6.87l-.54-.42a28,28,0,0,1-2.85-3Z" style="fill:#4d4d4d"/><path d="M33.47,29.15c.44-.12.89-.24,1.36-.35,5-1.19,11.88-1,20.5.49" style="fill:#38332d"/><path d="M62.93,30.83l5.24,1.27,2.3.64S60.7,37.17,57.39,46.19a50.28,50.28,0,0,0-2.78,18L35.72,54.14s-2.31-11-1.16-15.67A20.46,20.46,0,0,1,41.48,28C48.69,28,62.93,30.83,62.93,30.83Z" style="fill:#fff"/><path d="M62.93,30.83l5.24,1.27,1,.31s-9.59,4.24-12.9,13.26a45.14,45.14,0,0,0-2.84,16.6L36.58,53.71s-2.1-9.81-.94-14.53c1.26-5.16,6-9.66,7.48-11.13C51.85,28.05,62.93,30.83,62.93,30.83Z" style="fill:#005ca0"/><polygon points="48.69 34.78 49.51 39.42 53.79 41.38 49.63 43.59 49.09 48.27 45.7 45 41.08 45.93 43.15 41.69 40.84 37.59 45.5 38.25 48.69 34.78" style="fill:#fff"/></g></svg>
