<svg class="S" xmlns="http://www.w3.org/2000/svg" id="design" x="0" y="0" version="1.1" viewBox="0 0 126 126" xml:space="preserve"><defs/><style>.st0{fill:#6f2200}.st1{fill:#303030}.st2{fill:#330e01}.st3{fill:#191919}.st4{fill:#97380e}.st7{fill:#004523}.st8{fill:#535353}.st10{fill:#c8c5c1}.st13{fill:#396f53}.st14{fill:#ffbd95}.st17{fill:#5d8972}.st18{fill:#818181}</style><path d="M63.7 56.1c4.4 1 6.8 6.6 7.1 9.8.3 3.2-2.7 7.2-4.2 8.3-4.4 3.2-9.5 5.7-9.6 6.1-.1.7 1.5 13.4 1.2 14.8-.1.6-.5 2.3-.6 2.6-.1.3-3.3-1.1-3.3-1.1s.1-2.3.4-3c1.3-3-3.2-13.3-3.2-14.2 0-.9 3.2-3.7 3.4-5.2.3-1.5-2.9-7.6-2.9-10.5.2-3.1 3.3-9.5 11.7-7.6z" class="st0"/><path d="M54.4 96s-.9 1.2-.8 1.5c.1.3 2.9 4 3.5 4.1.7.1.4-2.1.6-2.7.2-.6.1-1.9.1-1.9l-3.4-1z" class="st1"/><path d="M57.2 61.1s.1-3.9-3.9-4.6c-3.8-.7-8.9 4.9-16.2 4.4-2.7-.2-5.9-4.9-5.9-4.9s-.6 1.8 0 3.4c.6 1.7 1.3 2.4 1.3 2.4.1.2-1.2-.2-2-.9-.4-.4-1-1.5-1-1.5s-.5 3 2.6 5.1c.2.1-1.8.8-1.8.8s1.2 1.7 3.5 2.7c2 .9 4.5 1.3 4.5 1.3l-3.1 1.9s3.5.1 4.5 0c.7-.1 2.4-1.1 2.4-1.1l-1.3 2s2.1.4 6.5-2.7c4.6-3 9.9-8.3 9.9-8.3zM116.1 30.8c.1.4-3.2 4.3-7.2 2.6-3.9-1.8-7-5.1-9.4-4.8-2.4.2-4.2.7-5.8-.8-1.1-1-1.5-2.2-1.5-2.2s1.8 1.8 2.8 1.9c1.2.1 2.4-.5 4-1 .7-.2 1.9.1 1.9.1s-1.2-1.3-2.3-1.5c-1.2-.2-2.4-.6-2.9-1.2-.6-.7-.5-2.1-.5-2.1s.6 1.3 1.5 1.4c.9.1 3.2 0 4.7 1.2 1.4 1.3 1.6-.5.4-1.8-.5-.5-2.1-.4-2.1-.4s1.6-1.4 3.2.3c4.3 4.5 4.3 3.5 6 3.5 5.7.1 7.2 4.8 7.2 4.8z" class="st2"/><path d="M101.4 28.4c.3.3-.1 5.4-4.4 6.2-4.3.8-8.7-.1-10.5 1.5-1.9 1.6-3 3-5.2 2.7-1.5-.2-2.5-1-2.5-1s2.6.4 3.4-.1c1-.6 1.7-1.7 2.7-3.1.5-.6 1.6-1.1 1.6-1.1s-1.7-.4-2.8.1c-1.1.5-2.3.9-3.1.7-.9-.2-1.6-1.5-1.6-1.5s1.2.7 2 .3c.8-.4 2.6-1.9 4.5-1.7 1.9.2 1-1.3-.7-1.7-.7-.1-1.9.9-1.9.9s.6-2.1 2.8-1.6c6.1 1.2 7-.6 7-.6h8.7z" class="st2"/><path d="M109.4 28.9c.2.4-1.9 5.1-6.1 4.5-4.3-.6-8.2-2.9-10.4-2-2.3.9-3.8 1.9-5.8.8-1.3-.7-2.1-1.7-2.1-1.7s2.3 1.3 3.2 1c1.1-.3 2.1-1.1 3.5-2 .6-.4 1.9-.5 1.9-.5s-1.5-.9-2.7-.8c-1.2.1-2.4.1-3.1-.3-.8-.5-1-1.9-1-1.9s.9 1.1 1.8.9c.9-.1 3.1-.9 4.8-.1 1.7.8 1.3-1-.1-1.8-.6-.4-2.1.2-2.1.2s1.2-1.8 3.2-.6c5.4 3.1 6.8 1.7 6.8 1.7l8.2 2.6z" class="st2"/><path d="M106.2 62.7c-1.2.8 1.3 5.3 1.4 4.6.1-.3.6-1.2 1.1-2.2-.6-1.1-.4-2.7-1.3-3.5-.1.2-.4.6-1.2 1.1z" class="st3"/><path d="M109.2 56.8c-.6-2.3-.4-4.3-1.6-4.9-1.2-.6-3.1-1.7-4.9-2.5-1.8-.7-5.6-3.6-5.6-3.6l-2.8 6s2 2.6 4.5 2.6 6.1-.1 6.4.2c.3.3 2.6 6.9 2.6 6.9s0 .1-.1.2c.8.9.6 2.4 1.3 3.5.7-1.2 1.5-2.6 1.8-3 0-.5-.9-2.9-1.6-5.4z" class="st0"/><path d="M50.1 104c.7.7 3.3.4 3.9.3.4-.1-.7-2.3-1.3-3.4-1 .1-2.1.2-2.8.3.1-.1-.2 2.2.2 2.8z" class="st1"/><path d="M111.7 29c-1.8-.6-11.9.9-15.4 1.3-3.6.4-17 3.4-18.3 5-1.3 1.6-5.6 8.2-8.3 11.5-1.4 1.7-10.3 7-12.2 8-1.9 1-4.7 5.1-5.4 7.2-.7 2 1 15.5.6 17.3-.4 1.8-3.2 5.1-3.3 7.3s-.2 14-.2 14l.7.5c.8-.1 1.9-.2 2.8-.3-.2-.4-.4-.7-.4-.7s.9-12.9 1.5-13.3c.6-.4 4.5-4.4 6-6.9 1.4-2.5 7.1-11.5 7.1-11.5s10-1.4 14.7-4.1C86.3 61.6 96 56 98.3 52.4c2.3-3.6.3-9.4 1.5-10 1.2-.6 3.4-1.6 4-1.9 1.4-.7 3.9-.8 7.5-2.1 3.4-1 2.2-8.8.4-9.4z" class="st4"/><path d="M98.7 69.5c-.5.7.4 3.7.7 3.9.2.2 1.3-1 2.2-1.9-.6-1.2-.7-2.1-.8-3.5-.7.4-1.7 1-2.1 1.5z" class="st1"/><path d="M104.1 58.4c-.7-.5-6.8-3.2-8.1-3.8-1.3-.6-1.2-3.6-1.2-3.6l-6.4 4.6s2 2.4 3.5 3.8c1.5 1.3 9.3 1.3 9.8 2.5s-.1 5.9-.5 5.9c-.1 0-.3.1-.6.2.1 1.3.3 2.3.8 3.5l.5-.5c1.1-1.1 1.7-1.3 2.1-2.1.5-.7.5-1.7.6-3.5.1-1.5 1-3.5.8-4.3.1-.7-.6-2.2-1.3-2.7zM108.8 30.3c-.6 1.8-.3 7.7 1.2 9.5 1.5 1.7 5 2.1 6.6 2.6 1.6.4 2.9.6 3.5 1.2.6.6.7 1.1 1.1 1.3.4.2 3.1-.2 3.6-.5.4-.4.5-1.4.9-1.8.3-.5.5-1.5.2-1.8-.3-.4-1.1-1.7-1.9-2.1-.9-.4-3.5-3-4.5-3.9-.9-.9-2.5-3.9-4.4-4.6-2-.9-5.5-2.2-6.3.1z" class="st4"/><path d="M111.3 30.8c-.5.3-1.6-.9-1.6-1.9 0-1 .5-2.8 1.1-3.3.6-.5.5.7.9 1.3.6.6 1.5 2.7-.4 3.9z" class="st0"/><path d="M120 42.9c-.1 0-9.1-2.1-13.7-3.7-7.9-2.7-11.6-4.3-11.6-4.3l.2-.5s3.7 1.6 11.5 4.3c4.6 1.6 13.6 3.7 13.7 3.7l-.1.5zM120.2 40.7s-.1-1 .7-2.2c.7-1 1.4-1.3 1.4-1.3l.9.8s-.8.4-1.2 1.2c-.5.8-.6 2-.6 2l-1.2-.5zM120 41.1c-.1-.1-7.8-5.4-7.8-5.4l-.4.5 7.8 5.2.4-.3z" class="st3"/><path d="M114.2 41.7c-.1-.1-.9-1.4-1.5-3.7-.5-1.9-.2-3.3.1-4.5.3-1.3 1.8-3.7 1.8-3.7l-.9-.3s-2.2 3.4-2.2 6.4c0 3 1.5 5.5 1.5 5.5l1.2.3z" class="st3"/><path d="M111.4 35.9c-.1 0-1.5-1-2.4-2.5-1.1-1.7-1.8-4.4-1.8-4.4l.7-.1s.6 2.9 1.7 4.4c.9 1.3 1.9 1.9 1.9 1.9l-.1.7z" class="st3"/><path fill="#e8a900" d="M120.7 43.1c-.4 0-.8-.1-1.1-.5-.2-.3-.3-.6-.3-.9 0-.3.2-.6.5-.9.5-.4 1.4-.3 1.8.2.2.3.3.6.3.9 0 .3-.2.6-.5.9-.2.1-.4.2-.7.3zm-.2-2.1c-.2 0-.3.1-.4.2-.2.1-.3.3-.3.5s0 .4.2.6c.3.3.8.4 1.1.1.2-.1.3-.3.3-.5s0-.4-.2-.6c-.2-.2-.4-.3-.7-.3z"/><path fill="#ababab" d="M70.5 59.7c1.4-.2 4-1.3 8.7-4.9 1.6-1.3 5.3-4 8.2-7.8 1.4-1.8-10.5-10.3-10.7-10.1-.2.2-.4 3-4.6 7.1-5.5 5.4-9.4 7.6-9.4 7.6s6.5 8.3 7.8 8.1z"/><path d="M73.3 42.8s4.6 3.6 8.1 7.7c4.7 5.5 7.1 9.8 7.1 9.8l2.4-1.5s-2.1-5.2-7.3-10.9c-4-4.4-8.1-7.5-8.1-7.5l-2.2 2.4z"/><path d="M81.8 51.5s.4.8.4 1.4.2 1.9.3 2.3c.1.4 1.1.7 1.1.7l1.3-.5s-1.2-2.1-1.6-2.7c-.3-.6-.3-1.5-.3-1.5l-1.2.3z"/><path d="M73.7 44.5s.9 2.3 2.2 4.5c1.4 2.2 2.4 3.2 3.1 2.9.7-.3 1.6-.9 2.3-.7.7.3 1.4.6 1.8.3.4-.3-2.1-3.9-3.8-6.1-1.7-2.2-2.8-2.6-2.8-2.6l-2.8 1.7z" class="st3"/><path d="M70.6 40.4c.1-.5 1.1-1.1 1.5-1 .6.1 1.9 1.6 2.1 1.9.2.4 1.2 1.6.4 2.5-.8.9-1.6.2-2.1-.3s-2.2-2.2-1.9-3.1z" class="st1"/><path d="M73.6 40.5s1.7 1.9.6 2.9c-.8.7-1.5 0-1.7.2-.2.2-.5.9-.8 1-.3.1-1.5.4-1.8.8-.3.4-2.6 3.4-2.1 3.8.5.4 3.9 1 5.7-.8 1.8-1.8 1.3-3.5 1.7-3.9.4-.4 2.3-.5 2.1-1.7-.1-.5-2.1-3.6-3.7-2.3z" class="st3"/><path d="M70.8 41.5s-1.5 4.3-3.1 5.3c-3 1.9-4.2 1.3-4.5 2.5-.2.6 1.9 1.8 3.5.8 1.5-1 7.2-6.6 7.2-6.6s-.9.2-1.9-.7c-.7-.7-1.2-1.3-1.2-1.3z" class="st1"/><path d="M3 54.4c1-1.2 2.8-.6 4.8.6 1.9 1.3 6.6 4.2 7.4 5.3.8 1 .6 3.2-1.3 2.9-1.8-.2-7.4-2.5-9-3.6s-4-2.5-1.9-5.2z" class="st7"/><g><path d="M26.2 58.5c0-.2-.2-.3-.3-.3l-1.3.2c-.2 0-.3.2-.3.3 0 .2.2.3.3.3l1.3-.2c.2 0 .3-.1.3-.3z" class="st8"/><path d="M26.2 57.9c0-.2-.2-.3-.3-.3l-1.3.2c-.2 0-.3.2-.3.3 0 .2.2.3.3.3l1.3-.2c.2.1.3-.1.3-.3z" class="st8"/><path d="M26.1 57.4c0-.2-.2-.3-.3-.3l-1.3.2c-.2 0-.3.2-.3.3 0 .2.2.3.3.3l1.3-.2c.2 0 .3-.2.3-.3z" class="st8"/><path d="M26 56.8c0-.2-.2-.3-.3-.3l-1.3.2c-.2 0-.3.2-.3.3 0 .2.2.3.3.3l1.3-.2c.2.1.4-.1.3-.3z" class="st8"/><path d="M21.5 57.6s1.9-1 2.3-1.1c.4-.1 2.1 0 2.1 0s-.4.6-.3 1c.1.4.4 1.3.4 1.3s-1.3.5-2 .6c-.7 0-1.7.2-1.7.2l-.8-2z" class="st8"/></g><path d="M21.8 57.2s-2.1.5-4.4 1.2-4.6 2-4.8 3.2c-.2 1.2.8 2 2.2 1.7 1.5-.3 7.9-3.2 8.1-3.4.2-.2-1.1-2.7-1.1-2.7z" class="st7"/><path fill="#ffa47c" d="M5.3 57.3s.4-1.1.7-1.7c.8-1.5 1.9-3.2 1.9-3.2L4.6 49s0 2.3-2.1 4.1c.5 1.6 1.3 3.4 2.8 4.2z"/><path d="M34.9 86.7s-1.5.4-1.6.7c-.1.3-.3 5.2.2 5.7s1.7-1.5 2.3-1.8c.6-.4 1.3-1.5 1.3-1.5l-2.2-3.1z" class="st1"/><path d="M42.1 92.7c-.2 6.5-5.7 11.6-12.2 11.4-6.5-.2-11.6-5.7-11.4-12.2.2-6.5 5.7-11.6 12.2-11.4 6.6.2 11.7 5.7 11.4 12.2zM40.6 71.6s1.1.1 1.7-.7c.6-.7 1.5-4.2 1.9-4.3.3-.1 1.7 3 1.1 4.8-.1.3-.2.9-.2.9l-.7 2.1s.7.6.7.8c-.2.6-.6 1.6-.6 1.6s-1 .4-1.8.2-2.9-.9-2.9-.9l.8-4.5z" class="st1"/><circle cx="30.4" cy="92.1" r="9.9" class="st10" transform="rotate(-41.867 30.359 92.127)"/><path d="M13.4 69.1s8.8-.2 11.9-.1c3.2.2 15.6 1.6 15.6 1.6l-.1 6S27.5 75 26 74.8c-1.5-.3-11.6 2.6-14.4 2.2-2.8-.4 1.8-7.9 1.8-7.9z" class="st10"/><path fill="#1d5b3b" d="M13.5 69c0-1.2-1.2-2.8-1.7-3.2-.8-.8-2.3-6.3-2.8-8-.5-1.7-3.7-5.3-6.4-4.8 0 0-3.3 2.5-2.4 9.2.3 2.3 4.4 12.5 6.1 11.8 3.5-1.2 5.2-2.3 7.2-5z"/><path d="M16.2 70c-.4-.6-2-.4-2.7-1.1-2.5 2.3-3.9 3.4-7.2 5 .7.9 1.3 1.5 1.7 1.9 2.3 1.6 5 .9 6 .3s3.1-4.4 2.2-6.1z" class="st10"/><path fill="#a09b95" d="M40.6 74.4c-.1 0-14.5-2-15.8-2.3-.6-.1-2.9.4-5.5.8-3.3.6-6.8 1.3-7.8 1.1-2-.4-2.2-1.7-2.3-1.8l.3-.1c0 .1.3 1.2 2 1.6 1 .2 4.6-.5 7.7-1.1 2.6-.5 4.9-.9 5.6-.8 1.3.2 15.7 2.2 15.8 2.3v.3z"/><path d="M3 55.6c1-1.2 2.8-.6 4.8.6 1.9 1.3 6.6 4.2 7.4 5.3.8 1 .6 3.2-1.3 2.9-1.8-.2-7.4-2.5-9-3.6s-4-2.6-1.9-5.2z" class="st13"/><path d="M10.3 77.2h13.6v1.4H10.3z" class="st7" transform="rotate(-10.078 17.116 77.885)"/><path d="M5.8 74.7c-.3 0-.4.4-.2.6.8.9 2.7 2.9 4.6 3.6.4.2 13-2.8 13-2.8l-3.1-1.6c-1.9-1-4.1-1.3-6.2-1l-8.1 1.2z" class="st1"/><g><path d="M8.6 45.6c-1.1-.8-4.2-1.4-5.5.7-1.3 2.1-.4 4 .5 5.1.7.9 1.4 1.3 2.6 1.8.3.1 2.5.3 2.9.1.3-.1.3-2.4.4-2.4.1 0 .3-.2.3-.3 0-.3-.4-1.8-.4-2 .1-.2.5-2.1-.8-3z" class="st14"/><path fill="#8d3b26" d="M9.3 46.5s-1.8-.8-3.7 1.3c-.4.5.6 2.1.5 2.3-.1.2-1.8-1.1-1.7-.9.8 2 .2 3.1.1 3.2-.6.1-2.6-2.6-1.9-5 .6-2.4 3.1-2.9 3.7-2.8.6 0 2.4 0 3 1.9z"/><path d="M5.5 49.5c.3.6.4 1.5.1 1.6-.3.1-.8-.3-1.1-.9-.3-.6-.2-1.2.1-1.4.4 0 .6.1.9.7z" class="st14"/></g><path fill="#383838" d="M3.7 49.9c.1 0 .7 1.5 1.4 2.1.7.7 1.7 1.2 2.9 1.3h.5s-.4-.2-.5-.2c-1.4-.3-2.3-1-2.3-1.1-.1-.1.4-1.3.5-2.3.1-.4 0-1.3 0-1.3l-.4.1s.1.6.1 1c-.1 1.1-.6 2.1-.6 2.1l-.6-.8c-.4-.5-.7-1.2-.7-1.2l-.3.3z"/><path d="M10.8 46.9c0-.3-.9-.4-1-.6-.3-1-1.2-2.9-4-2.6-3.9.4-4.9 4.4-3.5 6.4.3.4.7.9.8 1 .2.1.4-.6 1.3-1.3.8-.6 1.6-1.1 2.4-1.3 1.6-.5 4.1-1.3 4-1.6z" class="st7"/><path d="M2.2 53.2c.1 0 .8-1.2 1-1.1.2.1 1.8 1.1 2.4 1.5.7.5 1.7.6 1.8.7v1.4l-5.2-2.5zM7.9 59.2c-.3.6-1.3.6-2.1.1-.9-.5-1.4-1.3-1.1-1.9.3-.4 1.2-.5 2.1 0 .9.5 1.4 1.3 1.1 1.8z" class="st17"/><path d="M30.1 92.7L17.8 77.9l49.1-36.1 7.8-2.5.4 1.3-7.7 2.5-20 14.7-17.3 34.9zM19.7 78.1l10.1 12.1L45 59.5 19.7 78.1z" class="st7"/><path d="M32.6 91.9c0 1.2-1 2.2-2.2 2.2-1.2 0-2.2-1-2.2-2.2 0-1.2 1-2.2 2.2-2.2 1.2 0 2.2 1 2.2 2.2z" class="st1"/><path d="M119.6 42.1c-1.8.6-3.9 1.3-6.3 1.8-5.4 1.3-32.5 4.8-56.4 7.8-14.2 1.8-26.4 3.4-31.8 4.2-.6.1-1 .3-1.2.8-.4.8.1 1.8.1 1.9l.5-.2c-.1-.2-.4-.9-.1-1.4.1-.2.4-.4.8-.5 5.4-.8 17.6-2.4 31.7-4.2 19.7-2.5 41.5-5.3 51.6-7 2.2-.4 3.8-.6 4.8-.9 2.3-.5 4.5-1.2 6.3-1.8v-.5z" class="st3"/><g><path d="M26.2 59.6c0-.2-.2-.3-.3-.3l-1.3.2c-.2 0-.3.2-.3.3 0 .2.2.3.3.3l1.3-.2c.2.1.3-.1.3-.3z" class="st18"/><path d="M26.2 59.1c0-.2-.2-.3-.3-.3l-1.3.2c-.2 0-.3.2-.3.3 0 .2.2.3.3.3l1.3-.2c.2 0 .3-.2.3-.3zM26.1 58.5c0-.2-.2-.3-.3-.3l-1.3.2c-.2 0-.3.2-.3.3 0 .2.2.3.3.3l1.3-.2c.2 0 .3-.1.3-.3z" class="st18"/><path d="M26 58c0-.2-.2-.3-.3-.3l-1.3.2c-.2 0-.3.2-.3.3 0 .2.2.3.3.3l1.3-.2c.2 0 .4-.2.3-.3z" class="st18"/><path d="M21.5 58.8s1.9-1 2.3-1.1c.4-.1 2.1 0 2.1 0s-.4.6-.3 1c.1.4.4 1.3.4 1.3s-1.3.5-2 .6c-.7 0-1.7.2-1.7.2l-.8-2z" class="st18"/></g><path d="M21.8 58.3s-2.1.5-4.4 1.2-4.6 2-4.8 3.2c-.2 1.2.8 2 2.2 1.7 1.5-.3 7.9-3.2 8.1-3.4.2-.1-1.1-2.7-1.1-2.7z" class="st13"/></svg>
