<svg class="S" xmlns="http://www.w3.org/2000/svg" id="design" x="0" y="0" version="1.1" viewBox="0 0 126 126" xml:space="preserve"><defs/><style>.st1{fill:#f59374}.st4{fill:#c6ac87}</style><path fill="#6e3e25" d="M3.1 56.4s2.9-2.3 14.4-1.1c1.7.1 3.5-.2 5-1 0 0-9.3 1.8-14-5.5 0 0 9.9 2 13.6 0 0 0-9.1-2-9.1-6.8 0 0 7 3.2 12.6.9 1.2-.5 3.8-1.8 5.2-1.8 0 0-8.9-1.3-11.6-6.6 0 0 11 3.7 14.2.9 0 0-7.7-.5-8.1-2.5 0 0 5.7.9 11.6-4.4 2.5-2.2 6.5-4.3 14-2.1 0 0-5.8-4.4-12.3-3.6 0 0 5.1-3.7 16.8-.1 0 0-5.8-2.4-5-9.7 0 0 3.1 7.3 12.9 6.6 4-.3 10.4 1.3 13.7 6.8 0 0-3.7-6.9-8.3-8.6 3.7.4 7.2 1.7 10.2 3.8 1.2.9 8 4.9 8.9 9.7-.4-3.1-1-6.3-1.9-9.3 6.8 4.5 8.3 10.6 9.5 17.2l8 6s7.3 19.5 15.4 19.3l3.2 3s-1 4 1 6c0 0-2.1 3.9-9.6 4.7l-1.8 3.5c-3.9 1.2-8.1.9-11.9-.8 0 0 1.3-5.2-.7-7.7l-2.9-2.1s-8.6-.6-12.8-2l-10.2-4.7s-4.3 9.2-10 21.6c-1.5 3.2-7 12.2-9.8 16.8 0 0-4.4 7.7-7.9 10.2 0 0-.2-.9-.4-2.3 0-.3-.1-.6-.2-.9-1.8-6-7.6-14.8-10.7-19.2-10.6-15.3-22-20.6-22-20.6l12.6-5.4C22.6 63.4 9 56.1 3.1 56.4z"/><path d="M30.1 45c2.7-1.6 5.8-2.7 8.9-3.2-3.6 0-7.2.9-10.5 2.5-3.4 1.5-7.2 1.9-10.9 1 0 0 7.8 5.1 14.1 1.8-2.6.7-5.4.6-8-.3 2.3-.1 4.5-.7 6.4-1.8zM21.9 57.5s-7.4-.5-8.6-.4l11.2 4.4-4.2-3.1s8.2 1.4 11.2-3.2c0 .1-2.9 3-9.6 2.3zM32 38.9c1.6-1 1.4-1.2 1.6-1.8-1 .8-4.6 1.4-8.2.6 0 0 4.9 2.6 7.9 2.4-.5-.4-1.4-.8-1.3-1.2zM23.8 51.6c1.3-1.3 1.1-1.5 1.2-2.1-.8 1-4.2 2.4-7.8 2.4 0 0 5.4 1.4 8.2.6-.7-.3-1.6-.5-1.6-.9zM36.2 33.8c-1 .1-2.1.1-3.1-.1 2.3-.8 4.6-2 6.6-3.5 2.1-1.7 4.7-2.6 7.3-2.7-2-.4-4.5-.7-8.1 1.6-2.8 1.7-5.7 3.2-8.8 4.3 0 .2 3.3 1.5 6.1.4z" class="st1"/><path fill="#102740" d="M113.5 72.1s-.9-4.6-3.7-4.1c0 0-1.4 1.3 3.7 4.1z"/><path fill="#fff" d="M93.6 50.1l-5.4-2.6s.7 3.3 5.4 2.6z"/><path d="M75.1 20.8s2.1 4.2 3.2 4.7c-.6-.8-1.1-1.7-1.4-2.7 0 0 6.2 4.3 7.7 6.4 0 0-2.5-5.1-9.5-8.4zM93.3 37.5c0-.3-1.2-8.7-4.6-11.5 0 0 .5 5.7 1.6 7.8-.3-1.4-.5-2.8-.5-4.3 1.7 2.1 3.5 8 3.5 8zM45.9 22.7s3.1 1.1 5.7 2.3c-1.7-1-2.9-1.7-2.9-1.7s5 .8 8.2 1.4c0 0-7.1-2.5-11-2zM53.1 17.8c.9 2.8 3.3 4.9 6.2 5.4 0 0-2.9-.9-3.4-2.4 0 0 1.9 1.9 9.2 1.5 2.1-.1 5.7 0 8.1 1.7 0 0-2.9-3-10-2.9-3.8.4-7.4-.8-10.1-3.3z" class="st1"/><path d="M69.8 42.2c-4.1-2.4-4.4-5.5-4.4-5.5L26.3 64.3c-1.7 2.5-.7 8.2-.7 8.2 1.4-3.6 15.6-15 15.6-15-4.6 5.5-11 18.6-11 18.6.6 6.8 10.9 13.7 10.9 13.7 2.7-1.3 9.2-9.7 9.2-9.7 2.5-3.7 10.3-13.6 14.2-18.5C59 73.2 45.8 93.8 45.8 93.8l1.8 9.8c8.6-9.5 21.7-41.9 21.7-41.9l-3-4.4v.1l-1.7-3.9c-5.9 1.7-15.9 12.9-15.9 12.9 3.9-15.2 21.1-24.2 21.1-24.2z" class="st4"/><path d="M119.3 68c-1 .3-5.5-2.7-5.5-2.7-3.8-2.3-12.1-15.1-12.1-15.1l-.9-3.7c-1.8-.6-10.7-8.2-13.1-10.2-2.1-2.4-5.4-5.9-7.7-6.3 0 0 .3 1 1 2.2 1.5.8 4.1 2.4 5.1 3.8H80l1.7 2.8c-1.6-1.5-16.2-9.6-16.2-9.6.1 4.3 7.9 11.1 8.7 11.1.8 0 4.1.7 4.1.7l1.1 3.7 7.3.9 9.4 4.2s7.5 8.9 8.1 9.6c.6.7-8.8-7.3-8.8-7.3-5.5.8-11.1-4.5-11.1-4.5h-2.6c4.3 6.5 9.9 6.4 9.9 6.4-7 .9-11.2-4.5-12.5-6.4h-4.8c2.3 5 5.3 9.6 9 13.6-4.3-1.4-3.8-1.4-9-4.8 1.3 3.7 4.6 6.8 7.2 7.3 2.6.5 6.2-.6 6.2-.6 5-.9 10.1 1 13.2 4.9h-3.1c2.1.8 4.4 4 4.4 4l2.2 8.1c1.5 1.1 5.7 0 5.7 0l1.2-3.3-1.9-.7c0 3.4-2.3.9-2.3.9l-1.1-3.4-1.5-2.3s1.7 1.1 2 1.3l3.3 2.2c2 .6 4.2.7 6.3.2-.2-1-.1-2 .2-2.9l.9 2.5c.7-.2 1.4-.5 2.1-.9-.5-1.9-.5-3.8 0-5.7zm-10.7.7l5.9 1.2c-4.4 1.8-5.9-1.2-5.9-1.2z" class="st4"/></svg>
