<svg class="S" xmlns="http://www.w3.org/2000/svg" viewBox="0 0 126 126"><defs/><circle transform="rotate(-9.126 63.012 63.01)" cx="63" cy="63" fill="#f5bc2a" r="50.2"/><path d="M120.4 89.8l-2.8 9.1c-4.4-1.4-7-.8-9.7-.2-2.6.6-5.2 1.3-9.7-.2-4.4-1.4-6.2-3.5-8-5.5-1.1-1.2-2.1-2.5-3.8-3.5-1.1-.7-2.5-1.4-4.2-2L90.6 60c4.4 1.4 6.2 3.5 8 5.5 1.8 2.1 3.6 4.1 8 5.5 4.4 1.4 7 .8 9.7.2 2.6-.6 5.2-1.3 9.7.2l-2.8 9.2-2.8 9.2z" fill="#e6e6e6"/><g fill="#31474c"><path d="M123.1 80.7l-2.8 9.1c-4.4-1.4-7-.8-9.7-.2l2.8-9.1c2.7-.6 5.3-1.3 9.7.2zM110.7 89.7l-2.8 9.1c-2.6.6-5.2 1.3-9.7-.2l2.8-9.2c4.5 1.5 7.1.9 9.7.3z"/><path d="M116.3 71.4l-2.8 9.2c-2.6.6-5.2 1.3-9.7-.2l2.8-9.1c4.4 1.3 7.1.7 9.7.1zM103.8 80.4l-2.8 9.2c-4.4-1.4-6.2-3.5-8-5.5l2.8-9.1c1.8 1.9 3.6 3.9 8 5.4zM98.6 65.7l-2.8 9.2c-1.8-2.1-3.6-4.1-8-5.5l2.8-9.1c4.4 1.2 6.2 3.3 8 5.4zM93 84l-2.8 9.2c-1.1-1.2-2.1-2.5-3.8-3.5-1.1-.7-2.5-1.4-4.2-2l2.8-9.1c4.4 1.3 6.2 3.3 8 5.4z"/></g><path d="M74.4 58.9l-7.7 24.5-.1.2-8.3 27.1-7.1-.3 14.3-46.8 8.9-4.7z" fill="#e29b0e"/><path d="M74.1 60l-15.6 50.6-4-.2 14-47.5 5.6-2.9z" fill="#f4ca19"/><path d="M121.1 70.6L117.2 84c-6.1-2.1-9.7-1.2-13.3-.2-3.6.9-7.2 1.9-13.3-.2-2.6-.9-4.6-2-6.2-3.1 1.7-5.6 3.6-12.3 9.7-10.2 6.1 2.1 8.9 5 12.6 4 3.6-.9 8.1-3.3 14.1-3.6l.3-.1z" opacity=".4"/><path d="M118.3 66.8l-3.8 13.4c-6.1-2.1-9.7-1.2-13.3-.2-3.6.9-7.2 1.9-13.3-.2-6.1-2.1-8.6-5.1-11.1-8.1-1.5-1.8-3-3.6-5.2-5.2-1.5-1.1-3.4-2.1-5.9-2.9l11.5-40.1c6.1 2.1 8.6 5.1 11.1 8.1s5 6 11.1 8.1c6.1 2.1 9.7 1.2 13.3.2 3.6-.9 7.2-1.9 13.3.2l-3.8 13.4-3.9 13.3z" fill="#e6e6e6"/><g fill="#31474c"><path d="M122.2 53.4l-3.8 13.4c-6.1-2.1-9.7-1.2-13.3-.2l3.8-13.4c3.5-1 7.2-1.9 13.3.2zM105 66.5l-3.8 13.4c-3.6.9-7.2 1.9-13.3-.2l3.8-13.4c6 2.1 9.7 1.2 13.3.2zM112.7 39.8l-3.8 13.4c-3.6.9-7.2 1.9-13.3-.2l3.8-13.4c6 2 9.7 1.1 13.3.2zM95.5 52.9l-3.8 13.4c-6.1-2.1-8.6-5.1-11.1-8.1l3.8-13.4c2.5 3 5 6 11.1 8.1zM88.3 31.4l-3.8 13.4c-2.5-3-5-6-11.1-8.1l3.8-13.4c6.1 2.1 8.6 5.1 11.1 8.1zM80.6 58.2l-3.8 13.4c-1.5-1.8-3-3.6-5.2-5.2-1.5-1.1-3.4-2.1-5.9-2.9l3.8-13.4c6.1 2.1 8.6 5.1 11.1 8.1z"/></g><path d="M67.8 80.1l-5.9 19.4-3.6-11.6 5.9-19.1 3.6 11.3z" opacity=".4"/><g><path d="M2.9 80.7L.1 71.5c4.4-1.4 7-.8 9.7-.2 2.6.6 5.2 1.3 9.7-.2s6.2-3.5 8-5.5c1.8-2.1 3.6-4.1 8-5.5l8.4 27.5c-1.8.6-3.1 1.3-4.2 2-1.6 1.1-2.7 2.3-3.8 3.5-1.8 2.1-3.6 4.1-8 5.5-4.4 1.4-7 .8-9.7.2-2.6-.6-5.2-1.3-9.7.2l-2.8-9.1-2.8-9.2z" fill="#e6e6e6"/><g fill="#31474c"><path d="M12.5 80.5l2.8 9.1c-2.6-.6-5.2-1.3-9.7.2l-2.8-9.1c4.5-1.5 7.1-.8 9.7-.2zM15.3 89.7c2.6.6 5.2 1.3 9.7-.2l2.8 9.2c-4.4 1.4-7 .8-9.7.2l-2.8-9.2z"/><path d="M19.4 71.2l2.8 9.2c-4.4 1.4-7 .8-9.7.2l-2.8-9.2c2.6.6 5.3 1.2 9.7-.2zM22.2 80.4c4.4-1.4 6.2-3.5 8-5.5L33 84c-1.8 2.1-3.6 4.1-8 5.5l-2.8-9.1zM35.4 60.1l2.8 9.1c-4.4 1.4-6.2 3.5-8 5.5l-2.8-9.1c1.8-2 3.6-4.1 8-5.5zM41 78.4l2.8 9.1c-1.8.6-3.1 1.3-4.2 2-1.6 1.1-2.7 2.3-3.8 3.5L33 84c1.8-2.1 3.6-4.1 8-5.6z"/></g><path d="M60.3 63.5l14.3 46.8-7.1.3-8.3-27.1-.1-.2-7.7-24.5 8.9 4.7z" fill="#e29b0e"/><path d="M57.6 63l14 47.5-4 .2L51.9 60l5.7 3z" fill="#f4ca19"/><path d="M5.2 70.7c6 .3 10.5 2.6 14.1 3.6 3.6.9 6.5-1.9 12.6-4s8 4.6 9.7 10.2c-1.6 1.2-3.5 2.2-6.2 3.1-6.1 2.1-9.7 1.2-13.3.2-3.6-.9-7.2-1.9-13.3.2L4.9 70.6l.3.1z" opacity=".4"/><path d="M3.8 53.4L0 40c6.1-2.1 9.7-1.2 13.3-.2 3.6.9 7.2 1.9 13.3-.2 6.1-2.1 8.6-5.1 11.1-8.1s5-6 11.1-8.1l11.5 40.1c-2.5.8-4.3 1.8-5.9 2.9-2.2 1.6-3.7 3.4-5.2 5.2-2.5 3-5 6-11.1 8.1-6.1 2.1-9.7 1.2-13.3.2-3.6-.9-7.2-1.9-13.3.2L7.7 66.8 3.8 53.4z" fill="#e6e6e6"/><g fill="#31474c"><path d="M17.2 53.1L21 66.5c-3.6-.9-7.2-1.9-13.3.2L3.8 53.4c6.1-2.1 9.8-1.2 13.4-.3zM21 66.5c3.6.9 7.2 1.9 13.3-.2l3.8 13.4c-6.1 2.1-9.7 1.2-13.3.2L21 66.5zM26.7 39.5l3.8 13.4c-6.1 2.1-9.7 1.2-13.3.2l-3.8-13.4c3.5 1 7.2 1.9 13.3-.2z"/><path d="M30.5 52.9c6.1-2.1 8.6-5.1 11.1-8.1l3.8 13.4c-2.5 3-5 6-11.1 8.1l-3.8-13.4z"/><path d="M48.8 23.4l3.8 13.4c-6.1 2.1-8.6 5.1-11.1 8.1l-3.8-13.4c2.5-3.1 5-6.1 11.1-8.1zM56.5 50.1l3.9 13.4c-2.5.8-4.3 1.8-5.9 2.9-2.2 1.6-3.7 3.4-5.2 5.2l-3.8-13.4c2.4-3 4.9-6 11-8.1z"/></g></g></svg>
