<svg class="S" id="design" xmlns="http://www.w3.org/2000/svg" viewBox="0 0 126 126"><path d="M21.89,107.91a6.35,6.35,0,0,1-2.66-2.62A28.71,28.71,0,0,1,15.18,95.2s-3.87-15,3.83-35.38c0,0,5.22-14.16,21.86-31.55,0,0,19.68-19.93,47.25-17.94,0,0,13.75,2.15,18.58,8.75,0,0,11.68,10.93,3.23,43.72,0,0-6.46,21.86-28.32,39,0,0-19.37,12.42-35.77,13.91C45.84,115.71,27.76,117.24,21.89,107.91Z" style="fill:#8ea4ac"/><path d="M18,105.29a6.35,6.35,0,0,0,2.66,2.62c.14.22.28.43.43.63,4.45-.48,14.49-3.85,33.51-20.38,0,0,49.94-43.1,50.69-69.32-5-6.41-18.39-8.51-18.39-8.51-27.58-2-47.26,17.94-47.26,17.94C23,45.66,17.8,59.82,17.8,59.82,10.1,80.19,14,95.2,14,95.2A28.91,28.91,0,0,0,18,105.29Z" style="fill:#cdebf4"/><path d="M105.94,34.41c-1.37,1.92-10.33,13.53-11.61,15.27S83.45,63.39,82.17,65s-11.34,13.71-12.43,15-7.87,9.23-9.24,10.6-10,10.79-11.15,11.8-7,6.67-8,7.49c0,0-3,2.93,1.73,3.75,0,0,4,.72,12.26-.11a116.45,116.45,0,0,0,25-11.67c21.87-17.14,28.32-39,28.32-39,4.33-16.8,3.38-27.87,1.42-34.66C109,29.85,106.92,33,105.94,34.41Z" style="fill:#7d3d25"/><path d="M20.63,90.38s1.55,8.31,8.05,5.72A120.19,120.19,0,0,0,46,87.18,143.84,143.84,0,0,0,65,73.24,137.52,137.52,0,0,0,81.15,57.05S91.71,44.23,96.21,32.54c0,0,4.16-10.21,2.25-16.53,0,0-.08-2.51-6.23-4.07a43.4,43.4,0,0,0-19-.26,65.07,65.07,0,0,0-18,6.66,88,88,0,0,0-19.91,16.8A70.84,70.84,0,0,0,20.19,67S17.86,79.73,20.63,90.38Z" style="fill:#7d3d25"/><path d="M51.74,26.19s16.93-15.1,32.54-11.55c0,0,8.82,2.23,4.25,11.55A72.68,72.68,0,0,1,78,42.51S87.52,34.2,91.78,25c0,0,4.15-7.5-1.72-11C90.06,14,73.43,5.92,51.74,26.19Z" style="fill:#8ea4ac"/><path d="M36,43.73s-13,18.34-9.53,33.35c0,0,2.54,8.91,13.79,2.53,0,0,9.63-5.17,22.8-20.07A91.58,91.58,0,0,1,47.38,77.48S33.3,91.16,26.5,86c0,0-4.15-2.63-3.24-13.48C23.26,72.51,24,58.93,36,43.73Z" style="fill:#8ea4ac"/><path d="M91.22,59.94S86.76,68.78,86.11,72a51.18,51.18,0,0,0-10.22,6.81s6.16-4.78,9.24-3c0,0,2.68,1.22.82,6.24a29.53,29.53,0,0,1-4.38,6s6.08-5.51,8-11c0,0,5.84-3.73,8.19-8.68,0,0-4.86,7.46-7.78,4.3C90,72.67,86.92,69.83,91.22,59.94Z" style="fill:#8ea4ac"/></svg>
