<svg class="S" id="design" xmlns="http://www.w3.org/2000/svg" xmlns:xlink="http://www.w3.org/1999/xlink" viewBox="0 0 126 126"><defs><radialGradient id="radial-gradient" cx="27" cy="-537.8" r="14.47" gradientTransform="matrix(1, 0, 0, -1, 0, -456)" gradientUnits="userSpaceOnUse"><stop offset="0.26" stop-color="#fa0703"/><stop offset="0.53" stop-color="#a70000"/><stop offset="0.75" stop-color="#5a1105"/><stop offset="0.89" stop-color="#271004"/><stop offset="1" stop-color="#640f04"/></radialGradient><radialGradient id="radial-gradient-2" cx="601.23" cy="-517.67" r="17" gradientTransform="matrix(0.76, 0, 0, -0.76, -429.13, -311.08)" gradientUnits="userSpaceOnUse"><stop offset="0.57" stop-color="#460000"/><stop offset="0.86" stop-color="#216885"/><stop offset="0.88" stop-color="#23637e"/><stop offset="0.9" stop-color="#28546b"/><stop offset="0.94" stop-color="#313c4d"/><stop offset="0.97" stop-color="#3d1b22"/><stop offset="1" stop-color="#460000"/></radialGradient><radialGradient id="radial-gradient-3" cx="21.16" cy="-531.74" r="13.39" gradientTransform="matrix(1, 0, 0, -1, 0, -456)" gradientUnits="userSpaceOnUse"><stop offset="0.15" stop-color="#fff"/><stop offset="0.66" stop-color="#fa0703"/><stop offset="0.94"/></radialGradient><radialGradient id="radial-gradient-5" cx="50.99" cy="-537.8" r="14.47" xlink:href="#radial-gradient"/><radialGradient id="radial-gradient-6" cx="599.63" cy="-414.12" r="17" gradientTransform="matrix(1, 0, 0, -1, 0, -456)" xlink:href="#radial-gradient-2"/><radialGradient id="radial-gradient-7" cx="45.15" cy="-531.74" r="13.39" xlink:href="#radial-gradient-3"/><radialGradient id="radial-gradient-9" cx="75" cy="-537.8" r="14.47" xlink:href="#radial-gradient"/><radialGradient id="radial-gradient-10" cx="631.26" cy="-414.12" r="17" gradientTransform="matrix(1, 0, 0, -1, 0, -456)" xlink:href="#radial-gradient-2"/><radialGradient id="radial-gradient-11" cx="69.16" cy="-531.74" r="13.39" xlink:href="#radial-gradient-3"/><radialGradient id="radial-gradient-12" cx="69.15" cy="-531.74" r="13.39" xlink:href="#radial-gradient-3"/><radialGradient id="radial-gradient-13" cx="50.99" cy="-496.23" r="14.47" xlink:href="#radial-gradient"/><radialGradient id="radial-gradient-14" cx="599.63" cy="-359.32" r="17" gradientTransform="matrix(1, 0, 0, -1, 0, -456)" xlink:href="#radial-gradient-2"/><radialGradient id="radial-gradient-15" cx="45.15" cy="-490.17" r="13.39" xlink:href="#radial-gradient-3"/><radialGradient id="radial-gradient-17" cx="75" cy="-496.23" r="14.47" xlink:href="#radial-gradient"/><radialGradient id="radial-gradient-18" cx="631.26" cy="-359.32" r="17" gradientTransform="matrix(1, 0, 0, -1, 0, -456)" xlink:href="#radial-gradient-2"/><radialGradient id="radial-gradient-19" cx="69.16" cy="-490.17" r="13.39" xlink:href="#radial-gradient-3"/><radialGradient id="radial-gradient-20" cx="69.15" cy="-490.17" r="13.39" xlink:href="#radial-gradient-3"/><radialGradient id="radial-gradient-21" cx="98.99" cy="-537.8" r="14.47" xlink:href="#radial-gradient"/><radialGradient id="radial-gradient-22" cx="662.89" cy="-414.12" r="17" gradientTransform="matrix(1, 0, 0, -1, 0, -456)" xlink:href="#radial-gradient-2"/><radialGradient id="radial-gradient-23" cx="93.15" cy="-531.74" r="13.39" xlink:href="#radial-gradient-3"/><radialGradient id="radial-gradient-25" cx="39" cy="-558.51" r="14.47" xlink:href="#radial-gradient"/><radialGradient id="radial-gradient-26" cx="583.81" cy="-441.41" r="16.99" gradientTransform="matrix(1, 0, 0, -1, 0, -456)" xlink:href="#radial-gradient-2"/><radialGradient id="radial-gradient-27" cx="33.16" cy="-552.45" r="13.39" xlink:href="#radial-gradient-3"/><radialGradient id="radial-gradient-29" cx="3.48" cy="-557.12" r="14.47" gradientTransform="matrix(1.01, 0, 0, -1, 11.63, -454.29)" xlink:href="#radial-gradient"/><radialGradient id="radial-gradient-30" cx="574.36" cy="-543.9" r="17" gradientTransform="matrix(0.76, 0, 0, -0.76, -423.01, -310.32)" xlink:href="#radial-gradient-2"/><radialGradient id="radial-gradient-31" cx="-2.36" cy="-551.07" r="13.39" gradientTransform="matrix(1.01, 0, 0, -1, 11.63, -454.29)" xlink:href="#radial-gradient-3"/><radialGradient id="radial-gradient-33" cx="62.99" cy="-558.51" r="14.47" xlink:href="#radial-gradient"/><radialGradient id="radial-gradient-34" cx="615.44" cy="-441.41" r="16.99" gradientTransform="matrix(1, 0, 0, -1, 0, -456)" xlink:href="#radial-gradient-2"/><radialGradient id="radial-gradient-35" cx="57.15" cy="-552.45" r="13.39" xlink:href="#radial-gradient-3"/><radialGradient id="radial-gradient-37" cx="86.99" cy="-558.51" r="14.47" xlink:href="#radial-gradient"/><radialGradient id="radial-gradient-38" cx="647.07" cy="-441.41" r="16.99" gradientTransform="matrix(1, 0, 0, -1, 0, -456)" xlink:href="#radial-gradient-2"/><radialGradient id="radial-gradient-39" cx="81.15" cy="-552.45" r="13.39" xlink:href="#radial-gradient-3"/><radialGradient id="radial-gradient-41" cx="39" cy="-516.98" r="14.47" xlink:href="#radial-gradient"/><radialGradient id="radial-gradient-42" cx="583.81" cy="-386.69" r="17" gradientTransform="matrix(1, 0, 0, -1, 0, -456)" xlink:href="#radial-gradient-2"/><radialGradient id="radial-gradient-43" cx="33.16" cy="-510.93" r="13.39" xlink:href="#radial-gradient-3"/><radialGradient id="radial-gradient-45" cx="62.99" cy="-516.98" r="14.47" xlink:href="#radial-gradient"/><radialGradient id="radial-gradient-46" cx="615.44" cy="-386.69" r="17" gradientTransform="matrix(1, 0, 0, -1, 0, -456)" xlink:href="#radial-gradient-2"/><radialGradient id="radial-gradient-47" cx="57.15" cy="-510.93" r="13.39" xlink:href="#radial-gradient-3"/><radialGradient id="radial-gradient-49" cx="62.99" cy="-475.66" r="14.47" xlink:href="#radial-gradient"/><radialGradient id="radial-gradient-50" cx="615.44" cy="-332.23" r="17" gradientTransform="matrix(1, 0, 0, -1, 0, -456)" xlink:href="#radial-gradient-2"/><radialGradient id="radial-gradient-51" cx="57.15" cy="-469.61" r="13.39" xlink:href="#radial-gradient-3"/><radialGradient id="radial-gradient-53" cx="86.99" cy="-516.98" r="14.47" xlink:href="#radial-gradient"/><radialGradient id="radial-gradient-54" cx="647.07" cy="-386.69" r="17" gradientTransform="matrix(1, 0, 0, -1, 0, -456)" xlink:href="#radial-gradient-2"/><radialGradient id="radial-gradient-55" cx="81.15" cy="-510.93" r="13.39" xlink:href="#radial-gradient-3"/><radialGradient id="radial-gradient-57" cx="111" cy="-558.51" r="14.47" xlink:href="#radial-gradient"/><radialGradient id="radial-gradient-58" cx="678.69" cy="-441.41" r="16.99" gradientTransform="matrix(1, 0, 0, -1, 0, -456)" xlink:href="#radial-gradient-2"/><radialGradient id="radial-gradient-59" cx="105.16" cy="-552.45" r="13.39" xlink:href="#radial-gradient-3"/><radialGradient id="radial-gradient-60" cx="105.15" cy="-552.45" r="13.39" xlink:href="#radial-gradient-3"/></defs><g id="Layer_2" data-name="Layer 2"><circle cx="27" cy="83.71" r="12" style="fill:url(#radial-gradient)"/><circle cx="26.89" cy="83.34" r="11.29" style="opacity:0.300000011920929;isolation:isolate;fill:url(#radial-gradient-2)"/><path d="M24.19,74.58a6.91,6.91,0,0,0-5.67,5.78,44.36,44.36,0,0,1,4.65,2,16.24,16.24,0,0,1,2.5-2.86C25.19,77.86,24.8,76.24,24.19,74.58Z" style="fill:url(#radial-gradient-3)"/><path d="M27.56,74.83a6.84,6.84,0,0,0-2.19-.36H25.2c.51,1.42.86,2.9,1.28,4.34.38-.3.79-.59,1.2-.86C27.65,76.91,27.59,75.86,27.56,74.83Z" style="fill:url(#radial-gradient-3)"/><circle cx="50.99" cy="83.71" r="12" style="fill:url(#radial-gradient-5)"/><circle cx="50.89" cy="83.34" r="11.29" style="opacity:0.300000011920929;isolation:isolate;fill:url(#radial-gradient-6)"/><path d="M48.2,74.58a6.91,6.91,0,0,0-5.67,5.78,44.2,44.2,0,0,1,4.64,2,17.1,17.1,0,0,1,2.51-2.86C49.18,77.86,48.81,76.24,48.2,74.58Z" style="fill:url(#radial-gradient-7)"/><path d="M51.56,74.83a6.84,6.84,0,0,0-2.19-.36H49.2c.5,1.42.85,2.9,1.27,4.34.4-.31.82-.6,1.21-.86C51.65,76.91,51.58,75.86,51.56,74.83Z" style="fill:url(#radial-gradient-7)"/><circle cx="75" cy="83.71" r="12" style="fill:url(#radial-gradient-9)"/><circle cx="74.89" cy="83.34" r="11.29" style="opacity:0.300000011920929;isolation:isolate;fill:url(#radial-gradient-10)"/><path d="M72.19,74.58a6.92,6.92,0,0,0-5.67,5.78,43.47,43.47,0,0,1,4.65,2,16.6,16.6,0,0,1,2.5-2.86C73.19,77.86,72.81,76.24,72.19,74.58Z" style="fill:url(#radial-gradient-11)"/><path d="M75.56,74.83a6.75,6.75,0,0,0-2.19-.36H73.2c.51,1.42.86,2.9,1.28,4.34.4-.31.82-.6,1.2-.86C75.65,76.91,75.59,75.86,75.56,74.83Z" style="fill:url(#radial-gradient-12)"/><circle cx="50.99" cy="42.13" r="12" style="fill:url(#radial-gradient-13)"/><circle cx="50.89" cy="41.77" r="11.29" style="opacity:0.300000011920929;isolation:isolate;fill:url(#radial-gradient-14)"/><path d="M48.2,33a6.93,6.93,0,0,0-5.67,5.78,48.84,48.84,0,0,1,4.64,2,17,17,0,0,1,2.51-2.85C49.18,36.29,48.81,34.6,48.2,33Z" style="fill:url(#radial-gradient-15)"/><path d="M51.56,33.24a7.05,7.05,0,0,0-2.18-.35h-.17c.5,1.43.85,2.91,1.27,4.35.4-.31.82-.6,1.21-.88C51.65,35.3,51.58,34.29,51.56,33.24Z" style="fill:url(#radial-gradient-15)"/><circle cx="75" cy="42.13" r="12" style="fill:url(#radial-gradient-17)"/><circle cx="74.89" cy="41.77" r="11.29" style="opacity:0.300000011920929;isolation:isolate;fill:url(#radial-gradient-18)"/><path d="M72.19,33a6.94,6.94,0,0,0-5.67,5.78,47.93,47.93,0,0,1,4.65,2,16.54,16.54,0,0,1,2.5-2.85C73.19,36.29,72.81,34.6,72.19,33Z" style="fill:url(#radial-gradient-19)"/><path d="M75.56,33.24a7,7,0,0,0-2.19-.35H73.2c.51,1.43.86,2.91,1.28,4.35.4-.31.82-.6,1.2-.88C75.65,35.3,75.59,34.29,75.56,33.24Z" style="fill:url(#radial-gradient-20)"/><circle cx="98.99" cy="83.71" r="12" style="fill:url(#radial-gradient-21)"/><circle cx="98.88" cy="83.34" r="11.29" style="opacity:0.300000011920929;isolation:isolate;fill:url(#radial-gradient-22)"/><path d="M96.2,74.58a6.91,6.91,0,0,0-5.67,5.78,45.29,45.29,0,0,1,4.65,2,16.6,16.6,0,0,1,2.5-2.86C97.19,77.86,96.81,76.24,96.2,74.58Z" style="fill:url(#radial-gradient-23)"/><path d="M99.56,74.83a6.84,6.84,0,0,0-2.19-.36H97.2c.5,1.42.85,2.9,1.28,4.34.39-.31.81-.6,1.2-.86C99.64,76.91,99.58,75.86,99.56,74.83Z" style="fill:url(#radial-gradient-23)"/><circle cx="39" cy="104.42" r="12" style="fill:url(#radial-gradient-25)"/><circle cx="38.89" cy="104.05" r="11.29" style="opacity:0.300000011920929;isolation:isolate;fill:url(#radial-gradient-26)"/><path d="M36.19,95.28a6.93,6.93,0,0,0-5.7,5.78,48.84,48.84,0,0,1,4.64,2,17,17,0,0,1,2.58-2.85C37.18,98.57,36.81,96.89,36.19,95.28Z" style="fill:url(#radial-gradient-27)"/><path d="M39.56,95.5a6.75,6.75,0,0,0-2.19-.36H37.2c.51,1.42.86,2.9,1.28,4.35.4-.32.82-.61,1.21-.88C39.65,97.62,39.58,96.57,39.56,95.5Z" style="fill:url(#radial-gradient-27)"/><ellipse cx="15.06" cy="104.37" rx="12.06" ry="11.96" style="fill:url(#radial-gradient-29)"/><ellipse cx="14.96" cy="104.01" rx="11.35" ry="11.26" style="opacity:0.300000011920929;isolation:isolate;fill:url(#radial-gradient-30)"/><path d="M12.25,95.27A7,7,0,0,0,6.55,101a46.91,46.91,0,0,1,4.67,2,16.22,16.22,0,0,1,2.52-2.84C13.25,98.55,12.86,96.87,12.25,95.27Z" style="fill:url(#radial-gradient-31)"/><path d="M15.63,95.5a7.18,7.18,0,0,0-2.2-.35h-.17c.5,1.42.85,2.89,1.29,4.34.39-.32.81-.59,1.2-.87C15.73,97.61,15.65,96.56,15.63,95.5Z" style="fill:url(#radial-gradient-31)"/><circle cx="62.99" cy="104.42" r="12" style="fill:url(#radial-gradient-33)"/><circle cx="62.89" cy="104.05" r="11.29" style="opacity:0.300000011920929;isolation:isolate;fill:url(#radial-gradient-34)"/><path d="M60.2,95.28a6.94,6.94,0,0,0-5.63,5.78,48.84,48.84,0,0,1,4.64,2,17,17,0,0,1,2.51-2.85C61.19,98.57,60.8,96.89,60.2,95.28Z" style="fill:url(#radial-gradient-35)"/><path d="M63.56,95.5a6.84,6.84,0,0,0-2.19-.36H61.2c.51,1.42.85,2.9,1.28,4.35.39-.32.81-.61,1.2-.88C63.64,97.62,63.58,96.57,63.56,95.5Z" style="fill:url(#radial-gradient-35)"/><circle cx="86.99" cy="104.42" r="12" style="fill:url(#radial-gradient-37)"/><circle cx="86.89" cy="104.05" r="11.29" style="opacity:0.300000011920929;isolation:isolate;fill:url(#radial-gradient-38)"/><path d="M84.2,95.28a6.93,6.93,0,0,0-5.67,5.78,48.84,48.84,0,0,1,4.64,2,16.59,16.59,0,0,1,2.51-2.85C85.18,98.57,84.81,96.89,84.2,95.28Z" style="fill:url(#radial-gradient-39)"/><path d="M87.56,95.5a6.85,6.85,0,0,0-2.2-.36H85.2c.5,1.42.85,2.9,1.27,4.35.4-.32.82-.61,1.21-.88C87.65,97.62,87.58,96.57,87.56,95.5Z" style="fill:url(#radial-gradient-39)"/><circle cx="39" cy="62.9" r="12" style="fill:url(#radial-gradient-41)"/><circle cx="38.89" cy="62.52" r="11.29" style="opacity:0.300000011920929;isolation:isolate;fill:url(#radial-gradient-42)"/><path d="M36.19,53.76a6.91,6.91,0,0,0-5.7,5.78,48.84,48.84,0,0,1,4.64,2,16.26,16.26,0,0,1,2.58-2.85C37.18,57.05,36.81,55.36,36.19,53.76Z" style="fill:url(#radial-gradient-43)"/><path d="M39.56,54a6.75,6.75,0,0,0-2.19-.36H37.2c.51,1.42.86,2.9,1.28,4.35.4-.32.82-.6,1.21-.87C39.65,56.1,39.58,55.05,39.56,54Z" style="fill:url(#radial-gradient-43)"/><circle cx="62.99" cy="62.9" r="12" style="fill:url(#radial-gradient-45)"/><circle cx="62.89" cy="62.52" r="11.29" style="opacity:0.300000011920929;isolation:isolate;fill:url(#radial-gradient-46)"/><path d="M60.2,53.76a6.92,6.92,0,0,0-5.63,5.78,48.84,48.84,0,0,1,4.64,2,17,17,0,0,1,2.51-2.85C61.19,57.05,60.8,55.36,60.2,53.76Z" style="fill:url(#radial-gradient-47)"/><path d="M63.56,54a6.84,6.84,0,0,0-2.19-.36H61.2c.51,1.42.85,2.9,1.28,4.35.39-.32.81-.6,1.2-.87C63.64,56.1,63.58,55.05,63.56,54Z" style="fill:url(#radial-gradient-47)"/><circle cx="62.99" cy="21.58" r="12" style="fill:url(#radial-gradient-49)"/><circle cx="62.89" cy="21.2" r="11.29" style="opacity:0.300000011920929;isolation:isolate;fill:url(#radial-gradient-50)"/><path d="M60.2,12.43a6.92,6.92,0,0,0-5.63,5.79,44.2,44.2,0,0,1,4.64,2,16.64,16.64,0,0,1,2.51-2.85C61.19,15.73,60.8,14,60.2,12.43Z" style="fill:url(#radial-gradient-51)"/><path d="M63.56,12.69a6.84,6.84,0,0,0-2.19-.36H61.2c.51,1.42.85,2.9,1.28,4.35.39-.32.81-.6,1.2-.88C63.64,14.84,63.58,13.74,63.56,12.69Z" style="fill:url(#radial-gradient-51)"/><circle cx="86.99" cy="62.9" r="12" style="fill:url(#radial-gradient-53)"/><circle cx="86.89" cy="62.52" r="11.29" style="opacity:0.300000011920929;isolation:isolate;fill:url(#radial-gradient-54)"/><path d="M84.2,53.76a6.92,6.92,0,0,0-5.67,5.78,48.84,48.84,0,0,1,4.64,2,17,17,0,0,1,2.51-2.85C85.18,57.05,84.81,55.36,84.2,53.76Z" style="fill:url(#radial-gradient-55)"/><path d="M87.56,54a6.85,6.85,0,0,0-2.2-.36H85.2c.5,1.42.85,2.9,1.27,4.35a14.82,14.82,0,0,1,1.21-.87C87.65,56.1,87.58,55.05,87.56,54Z" style="fill:url(#radial-gradient-55)"/><circle cx="111" cy="104.42" r="12" style="fill:url(#radial-gradient-57)"/><circle cx="110.89" cy="104.05" r="11.29" style="opacity:0.300000011920929;isolation:isolate;fill:url(#radial-gradient-58)"/><path d="M108.19,95.28a6.94,6.94,0,0,0-5.67,5.78,47.93,47.93,0,0,1,4.65,2,16.54,16.54,0,0,1,2.5-2.85C109.19,98.57,108.81,96.89,108.19,95.28Z" style="fill:url(#radial-gradient-59)"/><path d="M111.56,95.5a6.75,6.75,0,0,0-2.19-.36h-.17c.51,1.42.86,2.9,1.28,4.35.4-.32.82-.61,1.2-.88C111.65,97.62,111.59,96.57,111.56,95.5Z" style="fill:url(#radial-gradient-60)"/></g></svg>
