<svg class="S" xmlns="http://www.w3.org/2000/svg" viewBox="0 0 100.78 110"><g style="isolation:isolate"><path fill="#822f20" d="M77.74 64.54c-.08.28-.17.61-.29 1a9.32 9.32 0 01-3.17-2l.34-.23a3.23 3.23 0 003.12 1.23zM76.61 67.89c-.24.59-.51 1.22-.84 1.89a15.15 15.15 0 01-5.3-3.78c.6-.34 1.15-.67 1.68-1a11.2 11.2 0 004.46 2.89zM74.58 72a27.62 27.62 0 01-2.09 3c-3.2-1.44-6-4.57-7.48-6.32 1.14-.48 2.2-1 3.2-1.49A17.49 17.49 0 0074.58 72zM70.77 76.89a24.52 24.52 0 01-3.38 2.9c-4.08-2-7.29-6.61-8.71-8.92 1.38-.39 2.68-.81 3.93-1.27a27.64 27.64 0 008.16 7.29zM64.93 81.3a26.29 26.29 0 01-4.9 2 20.58 20.58 0 01-8.14-11.11c1.45-.17 2.87-.41 4.23-.7 1.15 2 4.35 7.02 8.81 9.81zM56.93 84.09a35.52 35.52 0 01-6.08.59 20.11 20.11 0 01-6.23-12.46 30.55 30.55 0 003.48.2h1.26a22 22 0 007.57 11.67zM42.07 71.84a22.87 22.87 0 005.18 12.71 31.82 31.82 0 01-5.48-.9 33.71 33.71 0 01-4.34-13 35.75 35.75 0 004.64 1.19zM34.85 69.68a36.45 36.45 0 003.45 12.83 24.51 24.51 0 01-7.35-4.59 20.14 20.14 0 01-.78-10.46 45.58 45.58 0 004.68 2.22zM27.91 66.14a21.39 21.39 0 00-.41 7.94 26.65 26.65 0 01-2.52-4.2 8.34 8.34 0 011.55-4.63zM24 63.41l.5.38a12.3 12.3 0 00-1.12 2c-.19-.61-.33-1.13-.41-1.51z"/><path fill="#f6a714" d="M74.09 76.94l-.11 11a21.67 21.67 0 00-.77 6.91c-20.33 10-41.49 1.77-45.64 0a23.26 23.26 0 00-.13-3.68l.07-13.26c4.48 4.94 11.61 9.3 22.88 9.3 12-.03 19.29-4.96 23.7-10.27z"/><path fill="#dea88c" d="M13.44 76.53c.63.24 15.49 6 10.73 24l-.06.23.62 5a1.58 1.58 0 01-1.56 1.76H8.66a.46.46 0 01-.44-.3.47.47 0 01.13-.53l4.41-3.79-.89-1c-.14-.15-13.66-14.72-7.93-28.31 4.42-10.52 13-9.69 16.6-8.83a31.64 31.64 0 004.49 9.93v8.84c-3.88-6.73-11.59-7-11.59-7zM92.39 106.68a.47.47 0 01.13.53.46.46 0 01-.44.3H77.6a1.57 1.57 0 01-1.21-.51 1.53 1.53 0 01-.37-1.23l.61-5-.06-.23c-4.76-18 10.1-23.77 10.73-24-.12 0-6.94 0-10.82 5.85l.09-9a30.3 30.3 0 002.26-4.47 6.4 6.4 0 003.79 2.94 15.49 15.49 0 003.56.47h.11a5 5 0 005-4.45 5.65 5.65 0 01.29-1.26 15.83 15.83 0 015.25 7c4.89 11.61-4.62 24.41-7.58 28a1.41 1.41 0 00.08 1.9z"/><path fill="#dea88c" d="M89.61 57.94l.11-.38c3-10.55 2.34-18.34-2-23.82-5.73-7.25-18.41-10.5-37.67-9.65-.44 0-.86.06-1.29.09s-.86-.07-1.29-.09c-19.27-.85-31.95 2.4-37.67 9.65-4.34 5.48-5 13.27-2 23.82l.11.38-.13.37a11.62 11.62 0 00-.58 4.77 3.87 3.87 0 00.43 1.32 6 6 0 01.49 1 8.18 8.18 0 01.57 2.2 2.53 2.53 0 002.55 2.25 11.92 11.92 0 003-.39 4 4 0 003-3.65 9 9 0 000-1 13.39 13.39 0 00-.72-2.6c.7.1 2.87.9 4.31-.26 0 0 .34-.23.34-.24.2-2.63-4.54-5-4.54-5a13.46 13.46 0 00.42-10h3.22c0 1 1 9.69 1 11.77a9.07 9.07 0 011.42 1.62c1.18.9 8.21 9.05 20.7 10.47 0 0 1.21.06 3.84.13a14 14 0 001.94 0c1 0 2.4 0 3.31-.05 0 0 5.08-1.61 5.08-1.65 12.5-1.43 16.06-8 17.25-8.88a9.07 9.07 0 011.45-1.61c-.09-2.08 1-10.82 1-11.77 1.31.07 3.21 0 3.22 0a15.38 15.38 0 00.69 10.31s-4.69 2.21-4.49 4.84c1.44 1.16 4 .28 4.66.18a12 12 0 00-.86 2.66 9.54 9.54 0 000 1 3.93 3.93 0 002.86 3.72 12.06 12.06 0 003 .39 2.53 2.53 0 002.56-2.25 8.18 8.18 0 01.57-2.2 6.84 6.84 0 01.48-1 3.48 3.48 0 00.43-1.32 11.47 11.47 0 00-.57-4.77z"/><path fill="#d1d3d4" d="M56.8 55s4.22 4.81 12 3.39l1.66 6 4.68-2.83 1.53.41s2.72-3.79 6.72-4.35a16.9 16.9 0 01-1.73-6.51 13.69 13.69 0 011.73-6.37A10.16 10.16 0 0175.16 43s1.62 4.78-2.19 8.1S59.75 55.83 56.8 55zM40.73 55s-4.22 4.81-12 3.39l-1.65 6-4.69-2.89-1.52.41s-2.67-3.73-6.69-4.29a16.9 16.9 0 001.73-6.51 13.69 13.69 0 00-1.73-6.37A10.18 10.18 0 0022.39 43s-1.63 4.78 2.18 8.1 13.2 4.73 16.16 3.9zM17.48 63.72a28.82 28.82 0 002.77 8.18c2.28 4.57-6.81 4.63-6.81 4.63s8.82 8.39 8.89 15.11-1.88 9.7-1.88 9.7 2.71 2.7.84 4.09-12.9 1.25-12.9 1.25-1.68-.12-1.48 0 1.94 2.13 1.94 2.13l15.54-.47 1.8-1.8-.48-7.41.48-11.23V74.69l-5.23-11zM92.39 106.68s-11.06.14-12.93-1.25.83-4.09.83-4.09-1.94-3-1.87-9.7 8.97-15.11 8.97-15.11-7.21 0-7.17-3.3a11.31 11.31 0 007.82 1.46c4.78-1.13 5.93-7.32 5.93-7.32l-2.61-1.83s.06 4.64-3 5.27c-2.14.43-5.18-.76-6.82-1.52.11-1.28-1.16-.58-1.16-.58l-.51-5-5.23 11V87.9l.48 11.23-.48 7.41 1.8 1.8 15.59.48s1.73-2 1.94-2.13-1.58-.01-1.58-.01z" style="mix-blend-mode:multiply"/><path fill="#d1d3d4" d="M81.39 62.09s-.47 3.35.57 4.53 3.52 1.67 5 1.48 2.43-2.72 2.43-2.72l.56 1.66-1.56 2.56s-3 1-3.07 1-4.46-1.64-4.46-1.64l-1.59-4.07zM28.82 65.25l-.91.89s-2.93 2.22.45 6.52S38.68 83 53.02 81.11s20.92-11 21.26-12.89S70.47 66 70.47 66l4.11-3.86 4.73 1.63S74.98 83.54 56.07 85s-27.58-7.4-27.58-7.4L21.7 63.72l2.36-1.63z" style="mix-blend-mode:multiply"/><path fill="#d1d3d4" d="M74.6 79.73a8.59 8.59 0 00.73-1.28L74.58 75s-9.57 12.06-23.69 11.65-24.13-10.39-24.13-10.39l-.24 2.26-.07-.07v.82l.37 16.53 3 1.32v-14.2a23.5 23.5 0 005.47 3.19v12.11l2.83 1.47V87.15a40.24 40.24 0 008.33 1.58v11.92h7.54V88.87c1.29-.07 2.52-.18 3.67-.34v11.91l3-.75V88a26 26 0 009.83-4.14V97.1l3.62-1.18 1.58-10.79zM28.28 28.26s1.32 2.48 2.63 2.69c0 0-.7 13.93 17.93 13.93s17.92-14.39 17.92-14.39A7 7 0 0070.08 24s-3.07.39-3.68 0-4.44 5.12-4.44 5.12 2.14 13.23-13.12 12.59-13.26-13.19-13.26-13.19l-2.72-2.66z" style="mix-blend-mode:multiply"/><path d="M94.05 104.8l-2.46-2.12c3.11-3.68 13.07-16.91 7.55-30a17.78 17.78 0 00-6.54-8.36 12.62 12.62 0 00-.38-6.43c3.07-11 2.21-19.67-2.55-25.68-4.54-5.78-12.54-9.21-24.2-10.31a5.61 5.61 0 01-.55 2.48c11 1.06 18.71 4.18 22.8 9.36 4.34 5.48 5 13.27 2 23.82l-.11.38.13.37a11.47 11.47 0 01.57 4.77 3.48 3.48 0 01-.43 1.32 6.84 6.84 0 00-.48 1 8.18 8.18 0 00-.57 2.2 2.53 2.53 0 01-2.56 2.25 12.06 12.06 0 01-3-.39 3.93 3.93 0 01-2.86-3.72 9.54 9.54 0 010-1 12 12 0 01.98-2.65c-.69.1-3.22 1-4.66-.18-.2-2.63 4.49-4.84 4.49-4.84a15.38 15.38 0 01-.69-10.31h-3.26c.31-1.16-2-3.7-2-3.7a9.65 9.65 0 01-2.89 7.27C67.15 55.27 56.91 55 56.8 55s10.14 3 17.21-2.88a8.25 8.25 0 001-1.13 43.64 43.64 0 011.26 7.54 9.07 9.07 0 00-1.45 1.61c-1.23 1-11.42 8.69-24.54 9.74-12.32 1-22.89-6.9-25-8.64a6.05 6.05 0 01-2.26-.79 5.12 5.12 0 01-.63-.45c.07.44.16.89.26 1.35l-1.33 1.11-.9-.18a4.35 4.35 0 01-2.47 2.14 17.26 17.26 0 012.64.4 31.64 31.64 0 004.49 9.93v8.84c-3.84-6.77-11.55-7-11.55-7 .63.24 15.49 6 10.73 24l-.06.23.62 5a1.58 1.58 0 01-1.56 1.76H8.66a.46.46 0 01-.44-.3.47.47 0 01.13-.53l4.41-3.79-.89-1c-.14-.15-13.66-14.72-7.93-28.31a16.76 16.76 0 014.12-6.08A5.26 5.26 0 017.19 65a18.57 18.57 0 00-5.55 7.66c-5.52 13.11 4.44 26.34 7.55 30l-2.46 2.12a3 3 0 001.93 5.2h14.51a4.06 4.06 0 004-4.56l-.56-4.5a33.48 33.48 0 00.7-3.51 66.64 66.64 0 0024.25 4.75 51.41 51.41 0 0021.86-4.68 34.32 34.32 0 00.69 3.44l-.56 4.5a4.06 4.06 0 004 4.56h14.52a3 3 0 002.78-1.93 2.92 2.92 0 00-.8-3.25zm-16-55.56a13.8 13.8 0 00-.11 3.17c-.26-1.22-.53-2.34-.76-3.2zm-3.43 14.11a3.23 3.23 0 003.12 1.19c-.08.28-.17.61-.29 1a9.32 9.32 0 01-3.17-2zM72.15 65a11.2 11.2 0 004.46 2.93c-.24.59-.51 1.22-.84 1.89a15.15 15.15 0 01-5.3-3.82c.6-.39 1.15-.72 1.68-1zm-9.57 4.6a27.64 27.64 0 008.19 7.29 24.52 24.52 0 01-3.38 2.9c-4.08-2-7.29-6.61-8.71-8.92 1.35-.39 2.65-.81 3.9-1.27zm-6.46 1.89c1.15 2 4.35 7 8.81 9.81a26.29 26.29 0 01-4.9 2 20.58 20.58 0 01-8.14-11.11c1.5-.19 2.87-.41 4.23-.7zm-8 .93h1.26a22 22 0 007.57 11.69 35.52 35.52 0 01-6.08.59 20.11 20.11 0 01-6.23-12.46 30.55 30.55 0 003.46.18zm-6-.58a22.87 22.87 0 005.18 12.71 31.82 31.82 0 01-5.48-.9 33.71 33.71 0 01-4.34-13 35.75 35.75 0 004.59 1.19zm-11.9-4.38a45.58 45.58 0 004.68 2.22 36.45 36.45 0 003.45 12.83A24.51 24.51 0 0131 77.92a20.14 20.14 0 01-.83-10.46zm-6.83-1.67c-.19-.61-.33-1.13-.41-1.51l1-.87.5.38a12.3 12.3 0 00-1.09 2zm1.6 4.09a8.34 8.34 0 011.55-4.63l1.38.89a21.39 21.39 0 00-.41 7.94 26.65 26.65 0 01-2.53-4.2zm49 18.05a21.67 21.67 0 00-.77 6.91c-20.33 10-41.49 1.77-45.64 0a23.26 23.26 0 00-.13-3.68l.07-13.26c4.48 4.94 11.61 9.3 22.88 9.3 12 0 19.29-4.93 23.7-10.24zM72.49 75c-3.2-1.44-6-4.57-7.48-6.32 1.14-.48 2.2-1 3.2-1.49A17.49 17.49 0 0074.58 72a27.62 27.62 0 01-2.09 3zm20.07 32.25a.46.46 0 01-.44.3H77.6a1.57 1.57 0 01-1.21-.55 1.53 1.53 0 01-.37-1.23l.61-5-.06-.23c-4.76-18 10.1-23.77 10.73-24-.12 0-6.94 0-10.82 5.85l.09-9a30.3 30.3 0 002.26-4.47 6.4 6.4 0 003.79 2.94 15.49 15.49 0 003.56.47h.11a5 5 0 005-4.45 5.65 5.65 0 01.29-1.26 15.83 15.83 0 015.25 7c4.89 11.61-4.62 24.41-7.58 28a1.41 1.41 0 00.08 1.9l3.09 3.16a.47.47 0 01.14.53z"/><path fill="#dea88c" d="M62.09 28.52a11.22 11.22 0 01-9.23 12.85 27.08 27.08 0 01-8 0 11.23 11.23 0 01-9.24-12.85l.84-5.52a4.32 4.32 0 015.39-3.52 17.94 17.94 0 007 .69 17.89 17.89 0 007-.69A4.32 4.32 0 0161.21 23z"/><path d="M65.47 19.32c.51 7.27-3.38 9.2-3.38 9.2L61.21 23a4.32 4.32 0 00-5.39-3.52 17.89 17.89 0 01-7 .69 17.94 17.94 0 01-7-.69A4.32 4.32 0 0036.46 23l-.88 5.53s-3.89-1.93-3.37-9.2c.31-4.33 2.84-7.49 6.81-9.33a23.6 23.6 0 019.82-1.88A23.58 23.58 0 0158.65 10c3.97 1.83 6.5 5 6.82 9.32z"/><path d="M48.84 1.25c14.13 0 9.81 8.74 9.81 8.74a23.52 23.52 0 00-9.81-1.88A23.66 23.66 0 0039.02 10s-4.31-8.75 9.82-8.75zM41.51 26.21l4.88 1.39s-.38.8-2.25.64a3.61 3.61 0 01-2.63-2.03zM56.16 26.21l-4.85 1.39s.39.8 2.26.64a3.61 3.61 0 002.59-2.03z"/><path d="M66.71 19.23a12 12 0 00-6.52-9.85 6.81 6.81 0 00-.56-5.46C58.01 1.32 54.39 0 48.84 0s-9.18 1.32-10.79 3.92a6.78 6.78 0 00-.57 5.46 12 12 0 00-6.51 9.85c-.44 6.06 2 8.85 3.29 9.89A12.48 12.48 0 0044.62 42.6a27.92 27.92 0 008.43 0 12.48 12.48 0 0010.34-13.48c1.31-1.04 3.75-3.83 3.32-9.89zm-26.55-14c1.12-1.8 4.12-2.75 8.68-2.75s7.54.95 8.66 2.73a4.18 4.18 0 01.39 3.11 25.86 25.86 0 00-9-1.47 26.08 26.08 0 00-9.06 1.47 4.17 4.17 0 01.33-3.08zm-6.71 14.18c.27-3.7 2.37-6.56 6.09-8.28a22.55 22.55 0 019.3-1.78 22.54 22.54 0 019.29 1.77c3.71 1.72 5.82 4.59 6.09 8.29.24 3.32-.51 5.35-1.28 6.53l-.5-3.15A5.6 5.6 0 0059.93 19a5.48 5.48 0 00-4.44-.68 17.2 17.2 0 01-6.46.66h-.39a17 17 0 01-6.46-.66 5.48 5.48 0 00-4.44.68 5.6 5.6 0 00-2.51 3.84l-.5 3.13a10.38 10.38 0 01-1.28-6.56zm19.21 20.73a26.27 26.27 0 01-7.65 0 10 10 0 01-8.2-11.43l.88-5.53a3.13 3.13 0 011.4-2.13 3 3 0 012.42-.38 19.86 19.86 0 007.33.75 19.8 19.8 0 007.32-.75 2.92 2.92 0 012.42.38 3.13 3.13 0 011.4 2.13l.88 5.53a10 10 0 01-8.2 11.43z"/><path d="M23.39 51.83c7 5.83 17 2.85 17 2.85s-10.21.32-15.27-4.62a9.51 9.51 0 01-2.85-7.19s-2.32 2.51-2 3.66c-1.29.08-3.21 0-3.23 0a15.24 15.24 0 01-.65 10.23s4.63 2.18 4.44 4.78c-1.42 1.14-3.92.28-4.61.18a11.61 11.61 0 01.86 2.62v1A3.87 3.87 0 0114.2 69a12.66 12.66 0 01-2.92.39 2.51 2.51 0 01-2.53-2.23A8.12 8.12 0 008.19 65a7.28 7.28 0 00-.48-1 3.78 3.78 0 01-.43-1.29A11.41 11.41 0 017.85 58l.13-.37-.11-.37c-2.95-10.43-2.31-18.13 2-23.56s12.26-8.48 24-9.39a5.63 5.63 0 01.33-2.51c-12.8.89-21.44 4.31-26.23 10.37S2.39 46.65 5.39 57.56a12.43 12.43 0 00-.38 6.35 11.94 11.94 0 001 2.3 5.43 5.43 0 01.28 1.25 5 5 0 004.92 4.39h.11a14.63 14.63 0 003.52-.46 6.3 6.3 0 003.75-2.91c.31-1.57.65-3 .83-4.36a3.18 3.18 0 003.97-3.83c-.14-.75-2.18-2.11-2.18-2.11a43 43 0 011.18-7.47 7.56 7.56 0 001 1.12zm-3.64.67a14.93 14.93 0 00-.11-3.16h.86c-.21.83-.49 1.94-.74 3.16z"/></g></svg>
